<?xml version="1.0" encoding="UTF-8"?>
<svg version="1.1" viewBox="0 0 1600 432" width="1280" height="1280" xmlns="http://www.w3.org/2000/svg">
<path transform="translate(120,79)" d="m0 0c8.34 0.161 16.2 1.33 24.3 3.09 2.14 0.455 4.28 0.909 6.42 1.36 1.16 0.247 2.32 0.495 3.52 0.75 10.8 2.28 21.5 4.48 32.3 6.68 3.9 0.798 7.8 1.6 11.7 2.41 3.85 0.797 7.69 1.59 11.5 2.37 1.45 0.296 2.89 0.594 4.33 0.896 10.2 2.12 18.6 3.23 28.9 0.901 0.745-0.161 1.49-0.323 2.26-0.489 1.6-0.346 3.19-0.695 4.79-1.05 4.26-0.94 8.52-1.85 12.8-2.76 0.862-0.185 1.72-0.37 2.61-0.56 8.11-1.73 16.3-3.29 24.4-4.79 10.7-1.96 21.3-4 32-6.25 6.99-1.44 14.1-2.56 21.2-2.56v2c-0.66 0.33-1.32 0.66-2 1-6 20.2-2.18 46.7-2.2 67.7-0.00296 3.06-0.00707 6.12-0.0115 9.18-0.0136 9.61-0.0233 19.2-0.0272 28.8-0.0045 11-0.0222 22.1-0.051 33.1-0.0216 8.58-0.0317 17.2-0.033 25.7-0.00104 5.11-0.00687 10.2-0.0248 15.3-0.0165 4.79-0.0186 9.58-0.00986 14.4 7.67e-4 1.75-0.00353 3.5-0.0135 5.25-0.0128 2.4-0.00679 4.8 0.00358 7.2-0.0121 1.02-0.0121 1.02-0.0244 2.06 0.064 6.4 1.57 10.5 3.39 17.2h-33c-2.1-4.2-2.28-7.05-2.24-11.6-0.00171-0.767-0.00342-1.53-0.00518-2.32-0.0033-2.57 0.00771-5.14 0.0186-7.72 5.64e-4 -1.84 2.48e-4 -3.69-8.85e-4 -5.53-5.75e-4 -5.01 0.0112-10 0.0251-15 0.0125-5.23 0.0137-10.5 0.0161-15.7 0.00622-9.91 0.0226-19.8 0.0427-29.7 0.0223-11.3 0.0333-22.6 0.0434-33.8 0.0209-23.2 0.0561-46.4 0.101-69.6-4.8-0.0473-9.08 0.252-13.8 1.24-1.25 0.262-2.51 0.523-3.8 0.793-0.966 0.207-0.966 0.207-1.95 0.418-1.96 0.42-3.92 0.83-5.88 1.24-5.93 1.25-11.8 2.61-17.6 4.31-1.41 0.315-2.83 0.609-4.25 0.875-3.41 0.641-6.79 1.36-10.2 2.18-0.805 0.186-1.61 0.373-2.44 0.565-1.59 0.369-3.18 0.752-4.76 1.15-11.4 2.58-22.6 0.0203-33.8-2.52-1.81-0.399-1.81-0.399-3.65-0.806-2.46-0.544-4.93-1.09-7.39-1.64-4.42-0.987-8.84-1.95-13.3-2.91-1.9-0.412-3.79-0.825-5.69-1.24-5.87-1.28-11.7-2.49-17.6-3.65-0.901-0.205-1.8-0.409-2.73-0.62-0.749-0.125-1.5-0.251-2.27-0.38-1.95 1.95-1.15 5.71-1.16 8.37-0.00494 0.781-0.00988 1.56-0.015 2.37-0.0155 2.64-0.0238 5.27-0.0321 7.91-0.00957 1.88-0.0196 3.76-0.03 5.65-0.0271 5.13-0.0481 10.3-0.068 15.4-0.0218 5.35-0.0492 10.7-0.0761 16.1-0.05 10.1-0.0949 20.3-0.138 30.4-0.0493 11.5-0.104 23.1-0.16 34.6-0.114 23.7-0.221 47.5-0.323 71.2h-33c0.33-2.31 0.66-4.62 1-7 0.0782-1.69 0.118-3.39 0.114-5.08-7.05e-5 -0.952-1.41e-4 -1.9-2.14e-4 -2.89-0.00775-1.54-0.00775-1.54-0.0157-3.1-0.00146-1.1-0.00292-2.2-0.00443-3.33-0.0038-2.39-0.00991-4.77-0.0181-7.16-0.0129-3.84-0.0193-7.69-0.0241-11.5-0.0133-9.59-0.0368-19.2-0.0614-28.8-0.0237-9.34-0.0421-18.7-0.0521-28-7.89e-4 -0.662-0.00158-1.32-0.00239-2.01-0.0254-23 0.238-46 0.709-69 0.206-10.1 0.401-20.1 0.41-30.2 0.00125-0.782 0.0025-1.56 0.00378-2.37 0.477-13.2 0.477-13.2-3.06-25.5v-3z" fill="#BB9555"/>
<path transform="translate(44)" d="m0 0c0.66 0.33 1.32 0.66 2 1 2.92 0.279 5.84 0.446 8.76 0.621 3.24 0.379 3.24 0.379 6.41 1.3 4.1 1.15 8.18 1.96 12.4 2.7 0.803 0.145 1.61 0.291 2.43 0.441 2.55 0.462 5.1 0.919 7.65 1.38 9.97 1.78 19.9 3.6 29.7 5.95 3.16 0.727 6.31 1.24 9.52 1.67 3.24 0.435 6.21 0.962 9.34 1.9 5.66 1.55 11.4 2.16 17.2 2.89 0.9 0.12 1.8 0.24 2.73 0.363l2.45 0.311c2.38 0.471 2.38 0.471 4.74 1.43 3.2 1.26 6.32 1.85 9.71 2.48 1.01 0.188 1.01 0.188 2.04 0.381 2.15 0.399 4.3 0.79 6.45 1.18 1.42 0.263 2.83 0.526 4.25 0.789 6.25 1.16 12.5 2.28 18.8 3.3 4.11 0.675 8.16 1.48 12.2 2.47 11.2 2.63 20.9 2.89 32.2 1 0.857-0.135 1.71-0.269 2.6-0.408 4.03-0.351 4.03-0.351 7.4-2.15 1.43-0.261 2.86-0.467 4.3-0.648 0.888-0.117 1.78-0.233 2.69-0.354 0.95-0.123 1.9-0.246 2.88-0.373 6.61-0.895 12.9-1.92 19.3-3.87 5.87-1.58 11.9-2.41 17.9-3.42 2.4-0.417 4.78-0.897 7.16-1.39 4.92-1.02 9.89-1.7 14.9-2.38 2.79-0.395 2.79-0.395 4.68-1.54 2.75-1.28 5.24-1.62 8.25-2.03 1.76-0.247 1.76-0.247 3.56-0.5 1.22-0.165 2.45-0.33 3.71-0.5 7.06-0.962 13.9-1.91 20.7-4 2.7-0.551 5.41-0.994 8.12-1.44 5.27-0.892 10.5-1.88 15.7-3.12 17.3-4.1 35.2-7.72 51.3 1.81 12.5 8.76 19.3 19.9 21.9 34.8 1.34 13-2.54 24.3-9.94 34.8-2.48 2.71-5.17 5-8.06 7.25l-3.06 2.56c-12.4 8.49-28.6 7.47-42.9 7.44-0.625-1.75-0.625-1.75-1-4l0.937-1.79c1.29-2.69 1.47-4.88 1.7-7.85l0.254-3.24 0.238-3.37 0.262-3.41c0.212-2.78 0.416-5.56 0.613-8.34 1.15-0.0374 2.29-0.0748 3.47-0.113 1.53-0.0657 3.06-0.132 4.59-0.199l2.28-0.0684c6.25-0.298 11.2-1.45 16-5.74 2.25-3.98 3.05-7.31 2.62-11.9-1.65-4.81-3.76-8.13-7.94-11.1-4.56-1.4-7.73-1.32-12.3-0.00562-3.63 1.03-7.2 1.79-10.9 2.47-0.665 0.123-1.33 0.246-2.01 0.373-2.11 0.39-4.22 0.776-6.33 1.16-2.76 0.508-5.52 1.02-8.28 1.53-1.03 0.189-1.03 0.189-2.07 0.382-5.92 1.1-11.8 2.27-17.7 3.46-4.74 0.952-9.5 1.86-14.3 2.75-5.11 0.965-10.2 1.94-15.3 2.96-5.6 1.13-11.2 2.16-16.8 3.19-2.82 0.533-5.62 1.13-8.43 1.76-4.7 1.06-9.43 2-14.2 2.9-0.888 0.17-1.78 0.34-2.69 0.515-8.23 1.55-16.5 2.92-24.8 4.21-4.86 0.781-9.35 1.73-14 3.4-3.97 0.873-7.97 1.44-12 2l-3.12 0.488c-11.9 1.42-24.7-0.745-36.1-4.55-3.46-1.15-6.92-1.63-10.5-2.12-11.2-1.65-22.3-3.95-33.4-6.21-0.719-0.146-1.44-0.292-2.18-0.443-1.43-0.291-2.86-0.582-4.29-0.875-3.67-0.745-7.34-1.46-11-2.13-0.741-0.136-1.48-0.271-2.24-0.411-1.42-0.257-2.83-0.511-4.25-0.761-4.79-0.868-4.79-0.868-5.9-1.98-1.85-0.287-3.7-0.526-5.56-0.75-6.84-0.93-13.6-2.25-20.3-3.69-11.3-2.4-22.6-4.58-34-6.6-1.01-0.18-2.02-0.361-3.06-0.547-2-0.357-4.01-0.711-6.01-1.06-0.907-0.162-1.81-0.323-2.75-0.49-0.815-0.143-1.63-0.286-2.47-0.434-1.88-0.433-1.88-0.433-2.88-1.43-5.3-0.415-8.4 0.43-13 3h-2c-0.309 0.784-0.619 1.57-0.938 2.38-1.06 2.63-1.06 2.63-2.06 4.62-0.121 1.62-0.175 3.25-0.188 4.88-0.0213 1.3-0.0213 1.3-0.043 2.62 0.248 2.7 0.772 4.24 2.23 6.51 4.79 3.65 8.42 5.02 14.3 5.32 1.2 0.0628 1.2 0.0628 2.42 0.127 0.825 0.0393 1.65 0.0786 2.5 0.119l2.55 0.131c2.07 0.106 4.14 0.207 6.2 0.307-0.495 0.99-0.495 0.99-1 2-0.0882 3.27 0.144 6.54 0.312 9.81 0.0354 0.903 0.0709 1.81 0.107 2.74 0.227 4.61 0.658 8.21 2.58 12.5v4c-13.1 2.75-29.1 1.03-40.8-5.57-10.3-6.9-19-15.8-21.9-28.2-0.648-3.92-0.612-7.8-0.552-11.8l0.00195-2.46c0.0931-12.8 0.0931-12.8 3.5-18.5 0.409-0.703 0.817-1.41 1.24-2.13 0.478-0.762 0.956-1.52 1.45-2.31 0.59-0.976 1.18-1.95 1.79-2.96 2.4-3.3 5.04-5.73 8.27-8.17l1.73-1.31c7.91-5.77 15.4-8.21 25.2-7.56v-2z" fill="#BD9656"/>
<path transform="translate(62,365)" d="m0 0c0.898 0.307 1.8 0.614 2.72 0.93 5.46 1.56 11.1 1.79 16.7 2.2 1.11 0.0864 2.23 0.173 3.37 0.262 2.73 0.211 5.46 0.415 8.19 0.613-0.00524 0.772-0.0105 1.54-0.0159 2.34-0.0208 3.49-0.0338 6.98-0.0466 10.5-0.00838 1.21-0.0168 2.43-0.0254 3.68-0.00322 1.16-0.00645 2.33-0.00977 3.53-0.00524 1.07-0.0105 2.15-0.0159 3.25-0.00842 2.82-0.00842 2.82 1.11 5.73 90.8 0.33 182 0.66 275 1v-28c0.33-0.99 0.66-1.98 1-3 0.706-0.0198 1.41-0.0396 2.14-0.0601 3.2-0.0953 6.41-0.205 9.61-0.315 1.11-0.0309 2.22-0.0619 3.37-0.0938 1.6-0.058 1.6-0.058 3.24-0.117 1.48-0.0471 1.48-0.0471 2.98-0.0952 2.69-0.323 4.29-1.06 6.66-2.32h3v2h-3c0.66 0.33 1.32 0.66 2 1 0.154 7.94 0.302 15.9 0.443 23.8 0.0657 3.68 0.133 7.37 0.205 11.1 0.0693 3.55 0.134 7.11 0.195 10.7 0.0242 1.36 0.0501 2.72 0.0778 4.08 0.0384 1.9 0.07 3.79 0.101 5.69 0.03 1.62 0.03 1.62 0.0606 3.28-0.0823 2.44-0.0823 2.44-1.08 3.44-1.79 0.0993-3.59 0.127-5.38 0.129-1.17 0.00322-2.35 0.00645-3.56 0.00977-1.31-0.00155-2.61-0.0031-3.96-0.00469-1.39 0.00187-2.78 0.00417-4.17 0.00687-3.84 0.00615-7.67 0.00598-11.5 0.00481-4.13-2.03e-4 -8.26 0.00531-12.4 0.0101-8.1 0.00832-16.2 0.0111-24.3 0.0116-6.58 4.74e-4 -13.2 0.00252-19.7 0.0057-18.6 0.00881-37.3 0.0134-55.9 0.0127-1.01-4e-5 -2.01-7.99e-5 -3.05-1.21e-4 -1.01-4.09e-5 -2.01-8.18e-5 -3.05-1.24e-4 -16.3-4.07e-4 -32.6 0.00917-49 0.0233-16.7 0.0143-33.5 0.0213-50.2 0.0204-9.41-3.33e-4 -18.8 0.00245-28.2 0.0132-8.01 0.00908-16 0.0113-24 0.00449-4.09-0.00328-8.18-0.00327-12.3 0.00535-3.74 0.0078-7.48 0.0065-11.2-0.00228-2-0.00229-4.01 0.00534-6.01 0.0132-1.18-0.0046-2.35-0.0092-3.57-0.0139-1.02 2.17e-4 -2.04 4.35e-4 -3.1 6.59e-4 -2.41-0.25-2.41-0.25-4.41-2.25-0.247-2.45-0.247-2.45-0.243-5.58-0.00308-1.17-0.00615-2.34-0.00932-3.54 0.00719-1.27 0.0144-2.54 0.0218-3.84 4.58e-4 -1.3 9.16e-4 -2.59 0.00139-3.93 0.00157-2.75 0.00986-5.5 0.0233-8.25 0.017-3.52 0.0208-7.04 0.0201-10.6 3.38e-4 -3.36 0.00918-6.72 0.0178-10.1 0.00167-1.9 0.00167-1.9 0.00337-3.83 0.00638-1.17 0.0128-2.35 0.0193-3.56 0.00381-1.03 0.00762-2.07 0.0116-3.13 0.118-2.4 0.446-4.42 1.13-6.71z" fill="#BF9957"/>
<path transform="translate(837,186)" d="m0 0h41c4.49 8.98 4.49 8.98 6 14.2 0.493 1.67 0.493 1.67 0.996 3.37 0.331 1.14 0.663 2.27 1 3.45 1.93 6.43 3.86 12.8 6.29 19.1 1.09 2.96 1.94 5.99 2.82 9.02 1.08 3.54 2.26 7.03 3.45 10.5 1.72 5.08 3.26 10.1 4.44 15.4 1.98 0.495 1.98 0.495 4 1 0.0864-0.536 0.173-1.07 0.262-1.62 1.5-8.35 4.13-16.3 6.74-24.4 1.32-4.08 2.63-8.17 3.94-12.2 0.343-1.06 0.685-2.13 1.04-3.22 2.48-7.71 4.83-15.5 7.03-23.2 0.33-1.14 0.33-1.14 0.666-2.3 0.277-0.979 0.277-0.979 0.56-1.98 0.252-0.662 0.505-1.32 0.764-2.01 0.34-0.897 0.681-1.79 1.03-2.72 1.97-2.28 1.97-2.28 5.89-2.85 1.63 7.91e-4 3.27 0.029 4.9 0.0793 1.29 0.0106 1.29 0.0106 2.61 0.0214 2.75 0.028 5.5 0.0907 8.25 0.154 1.87 0.0251 3.73 0.0479 5.6 0.0684 4.57 0.0551 9.14 0.141 13.7 0.244 0.99 2.97 0.99 2.97 2 6-2.14 2.3-3.66 3.86-6.61 5.05-2.51 1.65-2.51 1.65-2.84 3.8-0.167 2.54-0.165 5.03-0.115 7.58-7.3e-4 0.966-0.00146 1.93-0.00221 2.93 0.00349 3.2 0.0424 6.4 0.0816 9.59 0.00932 2.22 0.0164 4.43 0.0214 6.65 0.0191 5.83 0.0682 11.7 0.124 17.5 0.0511 5.95 0.074 11.9 0.0992 17.9 0.0536 11.7 0.139 23.4 0.244 35 2.97 1.65 5.94 3.3 9 5-0.33 0.99-0.66 1.98-1 3 0.318 1.67 0.65 3.34 1 5-1 1-1 1-2.83 1.12-1.2-0.00333-1.2-0.00333-2.42-0.00673-0.901-7.55e-5 -1.8-1.51e-4 -2.73-2.29e-4 -0.979-0.00516-1.96-0.0103-2.97-0.0156-0.997-0.00141-1.99-0.00283-3.02-0.00429-3.2-0.00562-6.4-0.0182-9.6-0.0309-2.16-0.00501-4.33-0.00958-6.49-0.0137-5.32-0.0111-10.6-0.0278-15.9-0.0488-1.06-2.34-1.06-2.34-2-5 1.41-3.61 2.66-4.82 6.08-6.69 3.23-2.06 3.23-2.06 3.68-5.64 0.032-1.34 0.0311-2.68 0.00432-4.03 0.00902-0.736 0.018-1.47 0.0273-2.23 0.023-2.43 0.00401-4.86-0.0149-7.29 0.00872-1.7 0.0202-3.39 0.0343-5.09 0.0304-4.47 0.026-8.94 0.0134-13.4-0.00939-5.4 0.0191-10.8 0.0451-16.2 0.0199-4.21 0.0333-8.42 0.0258-12.6-0.00314-7.65 0.149-15.2 1.11-22.8h-2c-0.103 0.804-0.206 1.61-0.312 2.44-0.841 4.36-2.23 8.38-3.69 12.6-3.63 10.6-6.96 21.3-10.2 32-0.494 1.62-0.494 1.62-0.997 3.27-0.439 1.44-0.439 1.44-0.887 2.92-0.922 2.96-1.9 5.89-2.88 8.83-0.486 1.6-0.966 3.21-1.44 4.81-0.93 3.12-1.89 6.23-2.94 9.31-1.72 5.1-3.31 10.2-4.91 15.4-0.883 2.84-1.77 5.67-2.71 8.5-3.49 1.48-7.27 1.07-11 1-3.63-6.04-5.7-12-7.84-18.7-0.341-1.07-0.682-2.14-1.03-3.24-0.706-2.21-1.41-4.43-2.12-6.64-1.73-5.42-3.48-10.8-5.29-16.2-1.29-3.87-2.54-7.76-3.78-11.7-0.256-0.79-0.512-1.58-0.775-2.39-1.49-4.68-2.72-9.32-3.69-14.1-0.758-3.15-2.18-6.01-3.47-8.97-1.64-4.95-3.03-9.88-4-15-1.2 3.61-1.18 6.93-1.21 10.7-0.0148 1.17-0.0148 1.17-0.03 2.37-0.0316 2.58-0.0564 5.16-0.0811 7.74-0.0206 1.79-0.0416 3.58-0.063 5.37-0.0552 4.71-0.105 9.42-0.153 14.1-0.0502 4.81-0.106 9.61-0.161 14.4-0.108 9.43-0.209 18.9-0.307 28.3 1.15 0.46 1.15 0.46 2.32 0.93l7.68 3.07v3c0.186 0.66 0.371 1.32 0.562 2 0.438 2 0.438 2-0.562 5h-30c-2-5-2-5-1.06-7.62 2.63-3.03 5.38-3.9 9.06-5.38 0.0232-12.8 0.0409-25.7 0.0518-38.5 0.00522-5.96 0.0123-11.9 0.0236-17.9 0.0109-5.75 0.0168-11.5 0.0194-17.3 0.00185-2.2 0.00546-4.39 0.0109-6.59 0.00724-3.07 0.00826-6.14 0.0078-9.22 0.0036-0.911 0.00719-1.82 0.0109-2.76-0.00137-0.838-0.00275-1.68-0.00417-2.54 9.22e-4 -0.726 0.00184-1.45 0.00279-2.2-0.128-2.12-0.544-4-1.12-6.04-1.65-0.33-3.3-0.66-5-1v-2h-2v-7z" fill="#FCFCFC"/>
<path transform="translate(185,154)" d="m0 0c5.26 0.859 10.5 1.73 15.8 2.62 1.86 0.313 3.72 0.616 5.58 0.915 0.874 0.152 1.75 0.304 2.65 0.461 0.743 0.124 1.49 0.248 2.25 0.375 1.75 0.625 1.75 0.625 3.75 3.62 0.189 2.77 0.261 5.45 0.241 8.22 0.00171 0.848 0.00342 1.7 0.00518 2.57 0.0033 2.85-0.00772 5.7-0.0186 8.55-5.64e-4 2.04-2.48e-4 4.08 8.85e-4 6.12 5.75e-4 5.55-0.0112 11.1-0.0251 16.6-0.0125 5.79-0.0137 11.6-0.0161 17.4-0.00622 11-0.0226 22-0.0427 32.9-0.0265 14.8-0.0373 29.7-0.049 44.5-0.0188 23.4-0.0587 46.7-0.095 70.1h-91c0.33-0.99 0.66-1.98 1-3h-2c-0.0291-4.4-0.0468-8.79-0.0625-13.2-0.00838-1.25-0.0168-2.49-0.0254-3.78-0.00322-1.2-0.00645-2.4-0.00977-3.64-0.00524-1.1-0.0105-2.21-0.0159-3.35 0.105-2.8 0.473-5.32 1.11-8.05 0.846 0.309 1.69 0.619 2.56 0.938 7.04 2.18 14.1 2.26 21.4 2.38 1.55 0.0312 1.55 0.0312 3.13 0.063 3.28 0.0651 6.56 0.124 9.84 0.183 2.23 0.0432 4.46 0.0868 6.7 0.131 5.45 0.107 10.9 0.209 16.4 0.307-9.22e-4 -0.93-0.00184-1.86-0.00279-2.82-0.0222-22.6-0.0386-45.2-0.049-67.8-0.00516-10.9-0.0122-21.9-0.0236-32.8-0.00995-9.53-0.0164-19.1-0.0186-28.6-0.00131-5.05-0.00439-10.1-0.0116-15.1-0.00677-4.75-0.00888-9.49-0.00738-14.2-2.76e-4 -1.75-0.00228-3.49-0.0061-5.24-0.00495-2.38-0.00379-4.75-0.00105-7.13-0.00291-0.696-0.00583-1.39-0.00883-2.11 0.00937-3 0.172-5.25 1.13-8.12z" fill="#BB9454"/>
<path transform="translate(276,156)" d="m0 0c0.00423 0.878 0.00846 1.76 0.0128 2.66 0.103 21.4 0.212 42.8 0.327 64.2 0.0552 10.3 0.109 20.7 0.158 31 0.043 9.01 0.0893 18 0.14 27 0.0265 4.77 0.0514 9.54 0.0722 14.3 0.0197 4.5 0.0439 8.99 0.0714 13.5 0.00931 1.65 0.017 3.29 0.0229 4.94 0.0291 7.85 0.0962 15.6 1.2 23.4 6.67 0.05 13.3 0.0858 20 0.11 2.27 0.01 4.53 0.0236 6.8 0.041 3.27 0.0244 6.54 0.0356 9.81 0.0444 1 0.0103 2.01 0.0206 3.04 0.0313 6.06 9.53e-4 11.5-0.651 17.3-2.23 1.33-0.335 2.67-0.668 4-1-0.33 0.99-0.66 1.98-1 3v32h-91c-1.58-3.16-1.14-6.54-1.13-10-0.00156-0.837-0.00312-1.67-0.00473-2.54-0.00401-2.82-8.22e-4 -5.64 0.00232-8.47-0.00135-2.02-0.00313-4.03-0.00531-6.05-0.00457-5.49-0.00279-11 3.79e-4 -16.5 0.00252-5.73 1.86e-4 -11.5-0.00139-17.2-0.00182-9.63 5.84e-4 -19.3 0.00534-28.9 0.00544-11.1 0.00368-22.3-0.00183-33.4-0.00453-9.56-0.00518-19.1-0.00256-28.7 0.00156-5.71 0.00176-11.4-0.00154-17.1-0.00288-5.37-9.01e-4 -10.7 0.00489-16.1 0.00133-1.98 9.35e-4 -3.95-0.00126-5.93-0.00271-2.69 6.73e-4 -5.38 0.00568-8.06-0.00335-1.19-0.00335-1.19-0.00676-2.4 0.0196-5.39 0.0196-5.39 1.13-7.61 3.84-1.2 7.81-1.89 11.8-2.69 1.1-0.238 2.2-0.476 3.33-0.721 1.06-0.22 2.12-0.44 3.22-0.666 0.973-0.202 1.95-0.404 2.95-0.612 2.87-0.327 4.95 0.0612 7.75 0.686z" fill="#BB9454"/>
<path transform="translate(886 4.75)" d="m0 0c0.892 0.00143 1.78 0.00285 2.7 0.00432 1.01-0.00308 2.03-0.00615 3.07-0.00932 1.66 0.0108 1.66 0.0108 3.35 0.0218 1.15 4.58e-4 2.29 9.16e-4 3.47 0.00139 2.44 0.00303 4.88 0.0109 7.33 0.0233 3.66 0.0179 7.33 0.0205 11 0.0203 6.98 0.00897 14 0.0774 20.9 0.186 1.04 0.0143 2.07 0.0286 3.14 0.0434 2.86 0.0494 5.71 0.128 8.56 0.218 0.818 0.0134 1.64 0.0267 2.48 0.0405 7.06 0.286 13.1 2.39 18.5 6.95 8.79 10.5 11.3 17.8 10.3 31.8-1.38 7.12-4.49 13.3-10.3 17.8-5.53 3.66-11.4 4.47-17.9 5-1.84 0.0612-1.84 0.0612-2.82 1.25 0.601 0.257 1.2 0.513 1.82 0.777 2.41 1.35 3.46 2.55 5.05 4.79 0.513 0.715 1.03 1.43 1.55 2.17 0.518 0.749 1.04 1.5 1.57 2.27 0.498 0.718 0.995 1.44 1.51 2.18 4.55 6.7 8.88 13.6 12.5 20.8 1.38 2.69 2.81 5.34 4.25 8 0.555 1.07 0.555 1.07 1.12 2.16 3.07 5.62 6.39 8.77 12.6 10.8l1 9c-5.05 0.124-10.1 0.214-15.2 0.275-1.72 0.0251-3.44 0.0592-5.16 0.103-2.47 0.0607-4.94 0.089-7.42 0.111-0.767 0.0258-1.53 0.0516-2.32 0.0782-3.86 0.00202-5.54-0.172-8.35-2.92-1.73-2.88-3.4-5.75-4.97-8.71-0.605-1.14-1.21-2.29-1.83-3.46-2.15-4.17-4.25-8.37-6.33-12.6-1.9-3.77-3.91-7.47-5.96-11.2-1.04-1.89-2.05-3.79-3.04-5.7-4.42-8.89-4.42-8.89-12.5-14-0.33 14.5-0.66 29-1 44 1.32 0.66 2.64 1.32 4 2 3.05 1.97 4.78 3.54 6 7v5h-46c-0.495-2.97-0.495-2.97-1-6 2.26-3.01 4.66-4.4 8-6 0.0232-12.8 0.0409-25.7 0.0518-38.5 0.00522-5.96 0.0123-11.9 0.0236-17.9 0.0109-5.75 0.0168-11.5 0.0194-17.3 0.00185-2.2 0.00546-4.39 0.0109-6.59 0.00724-3.07 0.00826-6.14 0.0078-9.22 0.0036-0.911 0.00719-1.82 0.0109-2.76-0.00137-0.838-0.00275-1.68-0.00417-2.54 9.22e-4 -0.726 0.00184-1.45 0.00279-2.2-0.132-2.18-0.349-3.99-1.12-6.04-3-1.3-3-1.3-6-2-0.625-3.38-0.625-3.38-1-7 2-2 2-2 4.15-2.25zm32.9 12.2c-0.312 1.96-0.312 1.96-0.275 4.23-0.00953 0.874-0.0191 1.75-0.0289 2.65 9.11e-4 0.946 0.00182 1.89 0.00276 2.87-0.00429 0.969-0.00857 1.94-0.013 2.94-0.00575 2.05-0.00624 4.1-0.00191 6.15 0.00316 3.15-0.0203 6.29-0.0457 9.44-0.00227 1.99-0.00298 3.98-0.00195 5.97-0.00921 0.946-0.0184 1.89-0.0279 2.87 0.00623 0.874 0.0125 1.75 0.0189 2.65-6.29e-4 0.771-0.00126 1.54-0.00191 2.34 0.123 0.626 0.247 1.25 0.374 1.9 5.14 3.43 11.1 1.89 17 1 6.14-1.77 10.6-5.62 14-11 1.44-3.82 1.18-7.91 1.19-11.9 0.0184-1.05 0.0184-1.05 0.0371-2.13 0.0212-7.53-2.59-12.3-7.22-17.9-4.68-4.38-10-4.16-16.2-4.19-1.23-0.0142-2.46-0.0284-3.73-0.043-3.19-0.0986-3.19-0.0986-5.08 2.23z" fill="#FCFDFD"/>
<path transform="translate(566,186)" d="m0 0c8.42-0.0699 16.8-0.123 25.2-0.155 3.91-0.0156 7.82-0.0367 11.7-0.0709 3.78-0.0329 7.56-0.0506 11.3-0.0583 1.43-0.00549 2.87-0.0162 4.3-0.0326 11.1-0.121 20.8 1.1 30.8 6.25 0.956 0.483 1.91 0.967 2.9 1.46 13.4 7.87 21.5 23 25.7 37.6 3.61 16.6 1.97 37.3-6.2 52.2-3.11 4.74-6.77 8.78-10.8 12.8-0.847 0.862-0.847 0.862-1.71 1.74-13.9 13-32.8 14.4-50.8 14.5-1.16 0.0057-2.31 0.0114-3.51 0.0173-2.43 0.00939-4.85 0.016-7.28 0.0198-3.73 0.00981-7.46 0.0409-11.2 0.0723-2.36 0.00652-4.73 0.0118-7.09 0.0156-1.12 0.0123-2.24 0.0247-3.39 0.0374-1.03-3e-3 -2.06-6e-3 -3.12-0.00909-1.36 0.00547-1.36 0.00547-2.75 0.011-0.721-0.121-1.44-0.243-2.19-0.367-2-3-2-3-2.06-5.94 1.54-4.43 3.98-4.91 8.06-7.06 0.185-13.1 0.327-26.2 0.414-39.2 0.0418-6.08 0.0984-12.1 0.189-18.2 0.0869-5.86 0.135-11.7 0.156-17.6 0.0148-2.24 0.0437-4.47 0.0868-6.71 0.058-3.13 0.0661-6.26 0.0624-9.39 0.0288-0.926 0.0575-1.85 0.0872-2.81-0.0332-2.59-0.118-4.6-0.995-7.03-1.98-1.58-3.98-2.64-6.25-3.77-0.577-0.407-1.15-0.813-1.75-1.23-0.5-3.81-0.5-3.81 0-7zm38 10c-1.15 2.29-1.13 3.56-1.13 6.11-0.00282 0.86-0.00564 1.72-0.00854 2.6 0.00202 0.945 0.00405 1.89 0.00613 2.86-0.00175 0.994-0.0035 1.99-0.00531 3.01-0.00441 3.3-0.00148 6.59 0.00189 9.89-6.73e-4 2.28-0.00164 4.56-0.0029 6.84-0.00148 4.79 6.76e-4 9.57 0.00534 14.4 0.0057 6.15 0.00242 12.3-0.00357 18.4-0.0036 4.71-0.00247 9.42 1.28e-4 14.1 6.69e-4 2.27-1.6e-4 4.54-0.00248 6.8-0.00253 3.16 0.00131 6.33 0.0069 9.49-0.00202 0.947-0.00405 1.89-0.00613 2.87-0.408 4.11-0.408 4.11 1.14 7.58 11.2 0.834 23.3 0.405 32.3-7.23 10.4-10.6 12.3-25.3 12.2-39.6-0.0104-0.713-0.0208-1.43-0.0315-2.16-0.0292-2.18-0.0205-4.35-0.00757-6.53-0.0217-14.7-2.35-30.7-12.8-41.9-5.02-4.48-10.3-7.64-17.1-7.6-0.848 0.00322-1.7 0.00645-2.57 0.00977-0.881 0.00838-1.76 0.0168-2.67 0.0254-1.34 0.00677-1.34 0.00677-2.71 0.0137-2.2 0.0118-4.4 0.0282-6.61 0.0488z" fill="#FBFBFB"/>
<path transform="translate(1276 2.69)" d="m0 0c0.795-0.0161 1.59-0.0322 2.41-0.0488 6.9-0.00562 12.9 1.46 18.9 4.99 5.77 6.09 8.54 12.9 8.4 21.3-0.433 5.91-2.52 10.5-6.15 15.1-1.48 0.495-1.48 0.495-3 1-0.291 0.616-0.583 1.23-0.883 1.87-1.49 2.84-3.23 3.69-5.99 5.26-0.864 0.498-1.73 0.995-2.62 1.51-2.15 1.17-4.31 2.29-6.51 3.37 1.53 5.11 4.7 8.43 8.19 12.3 0.587 0.665 1.17 1.33 1.78 2.02 1.16 1.31 2.32 2.62 3.48 3.92 1.87 2.11 3.71 4.24 5.55 6.37 3.94 4.48 7.62 8.61 13 11.4h2c0.17-0.701 0.34-1.4 0.516-2.12 1.36-5.33 2.92-10.1 5.5-14.9 2.65-5.29 4.8-11 3.98-17-1.19-2.82-1.19-2.82-3-5-1.48-0.495-1.48-0.495-3-1v-3h21v4c-0.928 0.681-1.86 1.36-2.81 2.06-3.96 3-4.47 6.61-5.54 11.3-0.775 3.16-2.15 5.77-3.65 8.64-0.766 2.32-1.39 4.64-2 7h-2c-0.289 1.24-0.578 2.48-0.875 3.75-0.738 2.97-1.57 5.58-3.12 8.25h-2c-0.672 3.2-0.672 3.2 0 7 1.87 2.05 3.84 3.66 6.05 5.32 2.09 1.8 2.77 3.21 3.95 5.68 4.4 5.18 9 8.88 15 12 0.66 0.66 1.32 1.32 2 2 0.66 0.33 1.32 0.66 2 1v3c-0.949-0.0206-1.9-0.0412-2.88-0.0625-3.03-0.163-3.03-0.163-5.12 1.06-4.29 0.244-8.58 0.185-12.9 0.188-1.2 0.0122-2.4 0.0245-3.63 0.0371-1.15 0.00193-2.3 0.00387-3.49 0.00586-1.06 0.00411-2.11 0.00822-3.2 0.0125-4.06-0.351-6.04-1.38-8.73-4.41-0.603-0.812-1.21-1.62-1.83-2.46-0.614-0.817-1.23-1.63-1.86-2.48-0.459-0.626-0.918-1.25-1.39-1.9-4.06 0.534-6.21 1.67-9.31 4.31-10.8 8.73-21.2 9.22-34.7 8.69-2.99-0.363-5.12-0.972-8-2-0.626-0.222-1.25-0.443-1.9-0.672-7.76-3.25-14.7-10-18.7-17.4-3.02-8.07-2.98-19.4 0.5-27.2 0.681-1.24 1.39-2.48 2.12-3.69 0.675-1.33 1.34-2.66 2-4h2c0.268-0.598 0.536-1.2 0.812-1.81 1.19-2.19 2.28-3.6 4.19-5.19h2v-2c1.46-0.838 2.91-1.67 4.38-2.5 0.812-0.464 1.62-0.928 2.46-1.41 2.16-1.09 2.16-1.09 4.16-1.09-1.68-4.28-3.6-8.05-6.06-11.9-5.81-9.61-6.2-20-4.25-30.9 3.34-7.96 7.34-13.3 15.3-17.1 5.91-1.83 11.3-2.34 17.4-2.31zm-10.9 10.7c-3.92 4.72-4.87 9.54-4.56 15.6 1.44 8.03 5.89 16 11.7 21.6 2.29 1.63 2.29 1.63 5.31 1.38v-2c0.639-0.248 1.28-0.495 1.94-0.75 2.26-1.05 2.26-1.05 2.62-3.31 0.144-0.639 0.289-1.28 0.438-1.94 1.48-0.495 1.48-0.495 3-1 4.29-9.9 5.18-17.8 1.27-27.8-1.84-3.25-3.83-4.82-7.41-5.85-5.91-0.684-9.82-0.351-14.3 4.03zm-9.51 57.3c-6.81 7.62-8.02 16.4-7.54 26.2 0.608 6.62 3.13 11.6 7.74 16.4 0.908 0.557 1.82 1.11 2.75 1.69 0.648 0.431 1.3 0.861 1.96 1.3 7.04 4.38 13.6 5.54 21.8 3.95 3.7-0.991 7.05-2.09 10.2-4.25 1.13-2.25 1.13-2.25 1-5-1.53-2.25-2.97-4.04-4.81-6-1.02-1.14-2.03-2.28-3.05-3.43-0.521-0.585-1.04-1.17-1.58-1.77-2.5-2.88-4.82-5.89-7.12-8.92-0.625-0.816-0.625-0.816-1.26-1.65-1.8-2.37-3.52-4.75-5.17-7.23h-2c-0.186-0.66-0.371-1.32-0.562-2-2.05-4.27-5.01-7.74-8.44-11-2.18-0.219-2.18-0.219-3.95 1.71zm67 9.29 1 2zm-10 50v1h18v-1h-18z" fill="#FDFDFD"/>
<path transform="translate(1084,186)" d="m0 0h41c2.47 4.46 2.47 4.46 5 9 1.22 1.91 2.47 3.81 3.75 5.69 3.52 5.2 6.93 10.5 10.3 15.8 1.53 2.4 2.95 4.53 4.97 6.54 0.845 1.42 1.65 2.86 2.44 4.31 0.44 0.803 0.879 1.61 1.33 2.43 0.406 0.744 0.812 1.49 1.23 2.25 1.85 3.39 1.85 3.39 4.36 6.25 2.22 2.36 3.61 4.99 5.2 7.81 2.48 4.4 4.2 7.11 8.44 9.94 0.061-7.64 0.0565-15.3 0.0122-22.9-0.013-2.78-0.00476-5.56 0.0186-8.34 0.0287-3.53 0.0174-7.05-0.0196-10.6-0.00744-1.36-9.4e-4 -2.73 0.0198-4.09 0.0579-4.15 0.0305-8.07-1.03-12.1-1.98-1.87-3.78-2.82-6.25-3.92-0.576-0.357-1.15-0.714-1.75-1.08-0.5-3.81-0.5-3.81 0-7 4.44-0.0869 8.87-0.14 13.3-0.188 1.26-0.0251 2.53-0.0503 3.83-0.0762 1.21-0.00967 2.42-0.0193 3.66-0.0293 1.12-0.0157 2.23-0.0314 3.38-0.0476 2.82 0.341 2.82 0.341 4.71 1.86 0.551 0.733 0.551 0.733 1.11 1.48-0.625 2.88-0.625 2.88-2 6-1.98 0.727-3.98 1.4-6 2-4.47 11.6-2.22 28.3-2.32 40.6-0.0206 2.15-0.0416 4.31-0.063 6.46-0.0548 5.63-0.104 11.3-0.153 16.9-0.0506 5.76-0.106 11.5-0.161 17.3-0.107 11.3-0.209 22.5-0.307 33.8-1.77 0.108-3.54 0.186-5.31 0.25-0.986 0.0464-1.97 0.0928-2.99 0.141-2.7-0.391-2.7-0.391-4.55-2.28-1.14-2.11-1.14-2.11-1.14-4.11h-2c-3-5.75-3-5.75-3-8h-2c-2.04-2.91-3-4.4-3-8h-2c-1.62-2.23-1.62-2.23-3.44-5.19-0.597-0.963-1.19-1.93-1.81-2.92-1.12-1.85-2.24-3.71-3.35-5.57-1.09-1.8-2.23-3.57-3.4-5.32v-3c-0.99-0.33-1.98-0.66-3-1-1.65-2.6-2-3.86-2-7-0.99-0.33-1.98-0.66-3-1-1.02-1.99-2.01-3.99-3-6-1.1-1.62-2.23-3.22-3.38-4.81-2.21-3.09-4.22-6.14-6-9.5-2.09-3.92-4.55-7.51-7.12-11.1-3.35-4.71-6.15-9.46-8.53-14.7-0.839-2-0.839-2-2.97-2.83v88c1.65 0.66 3.3 1.32 5 2 1.67 0.667 3.33 1.33 5 2v3c0.186 0.66 0.371 1.32 0.562 2 0.438 2 0.438 2-0.562 5-4.09 0.0741-8.19 0.129-12.3 0.165-1.39 0.0151-2.79 0.0356-4.18 0.0615-2 0.0363-4 0.0518-6 0.0667-1.2 0.0157-2.41 0.0314-3.65 0.0476-0.953-0.112-1.91-0.225-2.89-0.341-2.14-3.21-2.65-4.27-2-8 3.14-2.42 6.27-3.51 10-5-0.33-33.3-0.66-66.7-1-101-2.97-1.65-5.94-3.3-9-5-1-5-1-5 0-7z" fill="#FCFCFC"/>
<path transform="translate(44)" d="m0 0c0.66 0.33 1.32 0.66 2 1 2.92 0.279 5.84 0.446 8.76 0.621 3.24 0.379 3.24 0.379 6.41 1.3 4.1 1.15 8.18 1.96 12.4 2.7 0.803 0.145 1.61 0.291 2.43 0.441 2.55 0.462 5.1 0.919 7.65 1.38 9.97 1.78 19.9 3.6 29.7 5.95 3.16 0.727 6.31 1.24 9.52 1.67 3.24 0.435 6.21 0.962 9.34 1.9 5.66 1.55 11.4 2.16 17.2 2.89 0.9 0.12 1.8 0.24 2.73 0.363l2.45 0.311c2.38 0.471 2.38 0.471 4.74 1.43 3.2 1.26 6.32 1.85 9.71 2.48 1.01 0.188 1.01 0.188 2.04 0.381 2.15 0.399 4.3 0.79 6.45 1.18 1.42 0.263 2.83 0.526 4.25 0.789 6.25 1.16 12.5 2.28 18.8 3.3 4.11 0.675 8.16 1.48 12.2 2.47 11.2 2.63 20.9 2.89 32.2 1 0.857-0.135 1.71-0.269 2.6-0.408 4.03-0.351 4.03-0.351 7.4-2.15 1.43-0.261 2.86-0.467 4.3-0.648 0.888-0.117 1.78-0.233 2.69-0.354 0.95-0.123 1.9-0.246 2.88-0.373 6.61-0.895 12.9-1.92 19.3-3.87 5.87-1.58 11.9-2.41 17.9-3.42 2.4-0.417 4.78-0.897 7.16-1.39 4.93-1.02 9.89-1.75 14.9-2.47 2.8-0.381 2.8-0.381 5.08-1.15 1.8-0.316 1.8-0.316 4.8 1.68v2l-13 1v2h-4v2h4v3l-5-2-1 1c-1.34 0.156-2.69 0.25-4.04 0.316l-2.45 0.127c-1.28 0.059-1.28 0.059-2.58 0.119-0.854 0.0432-1.71 0.0864-2.59 0.131-2.12 0.106-4.23 0.207-6.35 0.307v3h-13v2l-2.08-0.0352c-0.901-0.00902-1.8-0.018-2.73-0.0273-0.893-0.0116-1.79-0.0232-2.71-0.0352-2.61-0.0124-2.61-0.0124-5.48 1.1-2.33 0.0395-4.67 0.044-7 0v2c-3.3 0.66-6.6 1.32-10 2v4l-2-1 1-3c-1.63 0.645-3.25 1.29-4.88 1.94-0.905 0.36-1.81 0.719-2.74 1.09-2.34 0.922-2.34 0.922-4.38 1.97l-1.81-0.5c-2.71-0.62-4.46-0.0575-7.19 0.5-4.86 0.355-8.53 0.109-13-2l-1.88-0.438c-3.19-0.846-6.1-2.23-9.12-3.56v2h-6c0.99-0.99 0.99-0.99 2-2-2.31-0.33-4.62-0.66-7-1v-3l-1.94 0.562-2.06 0.438-1-1c-2.86-0.4-5.7-0.752-8.56-1.06-0.806-0.0909-1.61-0.182-2.44-0.275-2-0.225-4-0.444-5.99-0.662v2l-1.83-0.0352c-0.799-0.00902-1.6-0.018-2.42-0.0273-0.789-0.0116-1.58-0.0232-2.39-0.0352-2.32 0.014-2.32 0.014-4.37 0.613-2.33 0.567-4.23 0.509-6.62 0.297-0.776-0.0554-1.55-0.111-2.35-0.168-2.02-0.645-2.02-0.645-3.3-2.7-0.24-0.643-0.48-1.29-0.727-1.95 0.99-0.495 0.99-0.495 2-1-2.64-0.66-5.28-1.32-8-2v-2c-0.759 0.0116-1.52 0.0232-2.3 0.0352l-3.01 0.0273c-0.986 0.0116-1.97 0.0232-2.99 0.0352-2.7-0.0977-2.7-0.0977-5.7-1.1v-2h-2v-2c-0.651 0.0408-1.3 0.0815-1.97 0.124-2.95 0.178-5.89 0.34-8.84 0.501l-3.1 0.195-2.98 0.156c-0.906 0.0524-1.81 0.105-2.75 0.159-2.36-0.135-2.36-0.135-5.36-2.14-2.15 0.308-2.15 0.308-4 1l-1 4h3v5h6v4h-11l-1-3h-3c-0.495 1.48-0.495 1.48-1 3h-3v-2c-2.31-0.33-4.62-0.66-7-1v-2h7v-2c-7.22-0.299-7.22-0.299-14 2-0.99-0.99-0.99-0.99-2-2-2.44-0.243-2.44-0.243-5.12-0.125-0.91 0.018-1.82 0.0361-2.76 0.0547-1.05 0.0348-1.05 0.0348-2.12 0.0703v2c0.699-0.0348 1.4-0.0696 2.12-0.105 0.91-0.0271 1.82-0.0541 2.76-0.082l2.74-0.105c1.18 0.145 1.18 0.145 2.38 0.293 0.99 1.48 0.99 1.48 2 3h-12v3c-1.98-0.14-3.96-0.287-5.94-0.438-1.1-0.0812-2.2-0.162-3.34-0.246-2.72-0.316-2.72-0.316-3.72-1.32-5.3-0.415-8.4 0.43-13 3h-2c-0.309 0.784-0.619 1.57-0.938 2.38-1.06 2.63-1.06 2.63-2.06 4.62-0.121 1.62-0.175 3.25-0.188 4.88-0.0213 1.3-0.0213 1.3-0.043 2.62 0.248 2.7 0.772 4.24 2.23 6.51 4.79 3.65 8.42 5.02 14.3 5.32 1.2 0.0628 1.2 0.0628 2.42 0.127 0.825 0.0393 1.65 0.0786 2.5 0.119l2.55 0.131c2.07 0.106 4.14 0.207 6.2 0.307-0.495 0.99-0.495 0.99-1 2-0.0882 3.27 0.144 6.54 0.312 9.81 0.0354 0.903 0.0709 1.81 0.107 2.74 0.227 4.61 0.658 8.21 2.58 12.5v4c-13.1 2.75-29.1 1.03-40.8-5.57-10.3-6.9-19-15.8-21.9-28.2-0.648-3.92-0.612-7.8-0.552-11.8l0.00195-2.46c0.0931-12.8 0.0931-12.8 3.5-18.5 0.409-0.703 0.817-1.41 1.24-2.13 0.478-0.762 0.956-1.52 1.45-2.31 0.59-0.976 1.18-1.95 1.79-2.96 2.4-3.3 5.04-5.73 8.27-8.17l1.73-1.31c7.91-5.77 15.4-8.21 25.2-7.56v-2z" fill="#BD9756"/>
<path transform="translate(1309,186)" d="m0 0c11.2-0.0463 22.4-0.0818 33.5-0.104 5.19-0.0105 10.4-0.0246 15.6-0.0473 5.01-0.0217 10-0.0337 15-0.0389 1.91-0.00371 3.83-0.0109 5.74-0.0217 2.67-0.0144 5.34-0.0165 8.02-0.0156 0.797-0.00719 1.59-0.0144 2.42-0.0218 5.48 0.0207 5.48 0.0207 7.71 2.25 0.77 5.29 0.0969 8.29-2.55 12.9-0.816 1.45-0.816 1.45-1.65 2.92-0.594 1.04-1.19 2.08-1.8 3.16-1.26 2.27-2.51 4.54-3.76 6.8-0.977 1.76-1.96 3.52-2.93 5.29-1 1.8-2 3.61-3 5.41-0.64 1.15-1.28 2.3-1.94 3.49-0.575 1.03-1.15 2.07-1.74 3.14-1.5 2.65-3.05 5.26-4.62 7.87-1.14 1.98-2.28 3.96-3.41 5.95-0.663 1.16-1.33 2.32-1.99 3.49-0.344 0.603-0.687 1.21-1.04 1.83-5.18 9.09-10.4 18.2-15.6 27.2-0.436 0.753-0.872 1.51-1.32 2.28-1.94 3.34-3.88 6.68-5.84 10-0.647 1.1-1.29 2.2-1.96 3.34-0.55 0.931-1.1 1.86-1.67 2.82-1.23 1.81-1.23 1.81-1.14 3.05 4.53 0.0748 9.07 0.129 13.6 0.165 1.54 0.015 3.08 0.0354 4.62 0.0615 14.3 0.557 14.3 0.557 26.7-5.79 2.49-3.4 3.45-7.22 4.45-11.3 0.676-2.17 0.676-2.17 2.68-4.17 2.16-0.195 2.16-0.195 4.62-0.125 0.817 0.018 1.63 0.0361 2.48 0.0547 0.626 0.0232 1.25 0.0464 1.9 0.0703-0.495 1.49-0.495 1.49-1 3v31h-95c-1.8-5.41-2.06-10.5 0.171-15.8 1.66-3.01 3.43-5.92 5.27-8.82 1.3-2.13 2.59-4.25 3.88-6.38 0.633-1.03 1.27-2.05 1.92-3.11 2.29-3.76 4.45-7.59 6.57-11.4 2.78-5 5.66-9.92 8.62-14.8 3.82-6.29 7.41-12.7 11-19.1 2.92-5.3 5.93-10.5 9-15.7 2.19-3.78 4.27-7.63 6.34-11.5 1.26-2.28 1.26-2.28 3.26-5.28v-3c-16.1-0.469-16.1-0.469-32 2-1.35 0.346-1.35 0.346-2.72 0.699-2.55 1.13-2.55 1.13-3.25 4.02-0.263 1.6-0.263 1.6-0.531 3.22-0.929 5.62-0.929 5.62-3.92 7.93-2.77 1.21-4.6 1.39-7.58 1.13-1.85-6.26-2.28-11.9-2.19-18.4 6.45e-4 -0.901 0.00129-1.8 0.00195-2.73 0.0446-6.61 0.0446-6.61 1.19-8.89z" fill="#F9F9F9"/>
<path transform="translate(670 4.73)" d="m0 0c0.784 0.00405 1.57 0.0081 2.38 0.0123 1.24-0.00526 1.24-0.00526 2.5-0.0106 2.74-0.00882 5.48-0.00297 8.22 0.00378 1.9-0.00135 3.8-0.00329 5.69-0.0058 3.98-0.00295 7.96 0.00135 11.9 0.0107 5.11 0.0114 10.2 0.00484 15.3-0.00714 3.92-0.00722 7.84-0.00493 11.8 2.56e-4 1.89 0.00134 3.77-3.14e-4 5.66-0.00496 2.63-0.00506 5.26 0.00264 7.89 0.0138 0.784-0.00405 1.57-0.0081 2.38-0.0123 5.39 0.0425 5.39 0.0425 7.62 2.27 0.227 2.8 0.227 2.8 0.195 6.32-0.00645 1.26-0.0129 2.51-0.0195 3.81-0.0251 1.98-0.0251 1.98-0.0508 4-0.01 1.34-0.0192 2.68-0.0273 4.02-0.0236 3.29-0.0566 6.57-0.0977 9.86-6.65 0.273-6.65 0.273-9.81-2.19-2.08-2.67-3-4.69-4.19-7.81-0.707-1.25-1.46-2.48-2.25-3.69-0.376-0.581-0.753-1.16-1.14-1.76-5.19-5-13.2-3.81-19.9-3.74-1.11 6.45e-4 -2.22 0.00129-3.36 0.00195-5.02-0.451-5.02-0.451-9.33 1.19-0.0928 1.38-0.117 2.77-0.114 4.15 7.55e-5 0.881 1.51e-4 1.76 2.29e-4 2.67 0.00516 0.957 0.0103 1.91 0.0156 2.9 0.00212 1.46 0.00212 1.46 0.00429 2.96 0.00562 3.13 0.0182 6.26 0.0309 9.38 0.00501 2.12 0.00958 4.23 0.0137 6.35 0.0111 5.2 0.0283 10.4 0.0488 15.6 9.4-0.99 9.4-0.99 19-2 0.99-2.97 1.98-5.94 3-9 2.44-1.62 2.44-1.62 5-2 1.98 0.495 1.98 0.495 4 1v34c-7 1-7 1-9.12-0.438-2.08-2.85-3.89-5.79-5.63-8.86-1.22-2.02-1.22-2.02-4.25-2.71-1.87-0.0934-3.75-0.13-5.62-0.125-0.982-0.00258-1.96-0.00516-2.98-0.00781-2.35-0.137-2.35-0.137-3.4 1.13-0.0931 1.5-0.117 3.01-0.114 4.52 7.55e-5 0.961 1.51e-4 1.92 2.29e-4 2.91 0.00516 1.04 0.0103 2.09 0.0156 3.17 0.00212 1.6 0.00212 1.6 0.00429 3.22 0.00562 3.41 0.0182 6.83 0.0309 10.2 0.00501 2.31 0.00958 4.62 0.0137 6.92 0.0111 5.67 0.0278 11.3 0.0488 17 4.57 0.0746 9.14 0.129 13.7 0.165 1.55 0.015 3.11 0.0354 4.66 0.0615 2.24 0.0367 4.48 0.0535 6.72 0.0667 1.03 0.0232 1.03 0.0232 2.08 0.0469 5.65 0.00194 10-1.35 14.6-4.62 1.77-2.56 2.38-5.23 3.19-8.22 2.02-7.49 2.02-7.49 5-9.5 2.73-0.391 5.23-0.136 8 0-0.33 0.66-0.66 1.32-1 2v31h-94c-0.33-2.31-0.66-4.62-1-7 5.75-4 5.75-4 8-4-0.33-34.3-0.66-68.6-1-104-1.98-0.66-3.96-1.32-6-2v-2h-2c-0.125-2.38-0.125-2.38 0-5 2.54-2.54 4.16-2.24 7.62-2.27z" fill="#FCFCFC"/>
<path transform="translate(981,186)" d="m0 0c11.2-0.0463 22.4-0.0818 33.5-0.104 5.19-0.0105 10.4-0.0246 15.6-0.0473 5.01-0.0217 10-0.0337 15-0.0389 1.91-0.00371 3.83-0.0109 5.74-0.0217 2.67-0.0144 5.34-0.0165 8.02-0.0156 0.797-0.00719 1.59-0.0144 2.42-0.0218 5.48 0.0207 5.48 0.0207 7.71 2.25 0.227 2.8 0.227 2.8 0.195 6.32-0.00645 1.26-0.0129 2.51-0.0195 3.81-0.0251 1.98-0.0251 1.98-0.0508 4-0.01 1.34-0.0192 2.68-0.0273 4.02-0.0236 3.29-0.0566 6.57-0.0977 9.86-7.66-0.695-7.66-0.695-10.7-3.44-2.54-3.5-4.27-7.44-6-11.4-1.58-2.63-2.46-3.08-5.31-4.17-3.1-0.366-3.1-0.366-6.52-0.414-1.25-0.0387-2.5-0.0773-3.79-0.117-1.3-0.0309-2.6-0.0619-3.95-0.0938-1.32-0.0387-2.63-0.0773-3.99-0.117-3.25-0.0943-6.5-0.18-9.76-0.258-0.0253 6.25-0.0428 12.5-0.0549 18.7-0.00504 2.13-0.0119 4.25-0.0205 6.38-0.0121 3.05-0.0178 6.1-0.0222 9.15-0.00516 0.957-0.0103 1.91-0.0156 2.9-7.55e-5 0.881-1.51e-4 1.76-2.29e-4 2.67-0.00222 0.779-0.00444 1.56-0.00673 2.36-0.0755 1.81-0.0755 1.81 1.12 2.79 6.01 0.447 12.6 0.769 18-2 1.13-2.26 1.96-4.56 2.82-6.93 1.18-2.07 1.18-2.07 3.2-3.1 2.23-0.527 2.23-0.527 5.98-0.965v37c-7.77-0.814-7.77-0.814-9.84-2.49-0.543-0.903-0.543-0.903-1.1-1.82-0.38-0.594-0.761-1.19-1.15-1.8-0.939-1.95-1.47-3.78-1.91-5.89-3.46-1.07-6.64-1.1-10.2-1.06-1.08 0.00902-2.16 0.018-3.27 0.0273-1.23 0.0174-1.23 0.0174-2.48 0.0352-1.19 2.37-1.12 3.8-1.11 6.45 7.55e-5 0.921 1.51e-4 1.84 2.29e-4 2.79 0.00516 0.996 0.0103 1.99 0.0156 3.02 0.00212 1.53 0.00212 1.53 0.00429 3.09 0.00561 3.26 0.0182 6.52 0.0309 9.78 0.00501 2.21 0.00958 4.41 0.0137 6.62 0.011 5.42 0.0278 10.8 0.0488 16.3 4.57 0.0746 9.14 0.129 13.7 0.165 1.55 0.015 3.11 0.0354 4.66 0.0615 2.24 0.0367 4.48 0.0535 6.72 0.0667 1.03 0.0232 1.03 0.0232 2.08 0.0469 5.65 0.00194 10-1.35 14.6-4.62 1.77-2.56 2.38-5.23 3.19-8.22 2.02-7.49 2.02-7.49 5-9.5 2.73-0.391 5.23-0.136 8 0-0.495 1.49-0.495 1.49-1 3-0.084 2.36-0.107 4.72-0.0977 7.07 0.00141 0.684 0.00283 1.37 0.00429 2.07 0.00559 2.18 0.0181 4.36 0.0309 6.54 0.00502 1.48 0.00958 2.96 0.0137 4.44 0.011 3.62 0.0283 7.25 0.0488 10.9-12.1 0.116-24.1 0.205-36.2 0.259-5.61 0.0261-11.2 0.0616-16.8 0.118-5.41 0.0542-10.8 0.0842-16.2 0.0972-2.07 0.00926-4.13 0.0273-6.2 0.0543-2.89 0.0362-5.77 0.0413-8.66 0.039-1.29 0.027-1.29 0.027-2.6 0.0545-2.38-0.0208-2.38-0.0208-6.28-0.622-2.05-2.54-2.05-2.54-3-5 2.22-4.57 4.46-5.9 9-8 0.185-13.1 0.327-26.2 0.414-39.2 0.0418-6.08 0.0984-12.1 0.189-18.2 0.0869-5.86 0.135-11.7 0.156-17.6 0.0148-2.24 0.0437-4.47 0.0868-6.71 0.058-3.13 0.0661-6.26 0.0624-9.39 0.0288-0.926 0.0575-1.85 0.0872-2.81-0.0332-2.59-0.129-4.59-0.995-7.03-1.95-1.76-3.81-2.86-6.18-3.99-1.82-1.01-1.82-1.01-2.88-3.7 0.0625-2.31 0.0625-2.31 1.06-4.31z" fill="#F8F9F9"/>
<path transform="translate(1408,186)" d="m0 0c11.2-0.0463 22.4-0.0818 33.5-0.104 5.19-0.0105 10.4-0.0246 15.6-0.0473 5.01-0.0217 10-0.0337 15-0.0389 1.91-0.00371 3.83-0.0109 5.74-0.0217 2.67-0.0144 5.34-0.0165 8.02-0.0156 0.797-0.00719 1.59-0.0144 2.42-0.0218 5.48 0.0207 5.48 0.0207 7.71 2.25 0.227 2.8 0.227 2.8 0.195 6.32-0.00645 1.26-0.0129 2.51-0.0195 3.81-0.0251 1.98-0.0251 1.98-0.0508 4-0.01 1.34-0.0192 2.68-0.0273 4.02-0.0236 3.29-0.0566 6.57-0.0977 9.86-2.97-0.33-5.94-0.66-9-1-0.495-1.98-0.495-1.98-1-4h-2c-0.375-0.843-0.75-1.69-1.14-2.55-0.512-1.1-1.02-2.19-1.55-3.32-0.499-1.09-0.998-2.18-1.51-3.3-2.13-3.33-3.09-3.69-6.8-4.82-3.19-0.363-3.19-0.363-6.61-0.414-1.12-0.0356-2.25-0.0712-3.41-0.108-1.42-0.034-2.83-0.068-4.29-0.103-6.78-0.186-6.78-0.186-13.7-0.375v45c12 0.685 12 0.685 19-2 1.48-2.06 1.48-2.06 2.38-4.5 2.07-4.22 2.07-4.22 4.71-5.54 2.22-0.527 2.22-0.527 5.91-0.965-0.33 0.99-0.66 1.98-1 3-0.0848 2.59-0.116 5.14-0.0977 7.73 0.00141 0.75 0.00283 1.5 0.00429 2.27 0.00559 2.39 0.0181 4.79 0.0309 7.18 0.00502 1.62 0.00958 3.25 0.0137 4.87 0.011 3.98 0.0283 7.96 0.0488 11.9-6.07-0.568-6.07-0.568-8-1-1.81-2.19-1.81-2.19-3-5-1.5-4.14-1.5-4.14-4.71-6.66-2.85-0.418-5.6-0.468-8.48-0.461-1.07-0.00258-2.13-0.00516-3.23-0.00781-2.51-0.16-2.51-0.16-3.58 1.13-0.093 1.47-0.117 2.95-0.114 4.43 7.55e-5 0.941 1.51e-4 1.88 2.29e-4 2.85 0.00516 1.02 0.0103 2.05 0.0156 3.1 0.00212 1.56 0.00212 1.56 0.00429 3.16 0.00562 3.34 0.0182 6.68 0.0309 10 0.00501 2.26 0.00958 4.52 0.0137 6.78 0.0111 5.55 0.0278 11.1 0.0488 16.7 4.55 0.0747 9.11 0.129 13.7 0.165 1.55 0.015 3.09 0.0354 4.64 0.0615 11.8 0.475 11.8 0.475 22.7-3.23 2.73-3.35 3.8-7.08 5.06-11.2 1.72-5.59 1.72-5.59 3.94-7.81 2.69-0.27 5.29-0.0874 8 0-0.495 1.49-0.495 1.49-1 3-0.084 2.36-0.107 4.72-0.0977 7.07 0.00141 0.684 0.00283 1.37 0.00429 2.07 0.00559 2.18 0.0181 4.36 0.0309 6.54 0.00502 1.48 0.00958 2.96 0.0137 4.44 0.011 3.62 0.0283 7.25 0.0488 10.9-11.8 0.0231-23.6 0.0409-35.4 0.0518-5.48 0.00522-11 0.0123-16.5 0.0236-5.29 0.0108-10.6 0.0168-15.9 0.0194-2.02 0.00185-4.04 0.00547-6.06 0.0109-2.83 0.00723-5.65 0.00826-8.48 0.0078-0.84 0.0036-1.68 0.00719-2.55 0.0109-3.31-0.00591-5.99-0.0711-9.15-1.12-0.731-2.63-1.14-4.46-0.438-7.12 2-2.61 4.5-3.48 7.44-4.88 0.0694-13 0.123-26 0.155-39 0.0157-6.03 0.0369-12.1 0.0709-18.1 0.0325-5.82 0.0505-11.6 0.0583-17.4 0.00555-2.22 0.0164-4.44 0.0326-6.67 0.0217-3.11 0.0248-6.21 0.0234-9.32 0.0108-0.924 0.0216-1.85 0.0327-2.8-0.00412-0.846-0.00825-1.69-0.0125-2.56 0.00277-0.735 0.00553-1.47 0.00838-2.23-0.479-2.51-1.42-3.33-3.37-4.93-1.65-1.03-3.31-2.04-5-3 0.33-2.31 0.66-4.62 1-7z" fill="#FAFAFA"/>
<path transform="translate(686,186)" d="m0 0c11.2-0.0463 22.4-0.0818 33.5-0.104 5.19-0.0105 10.4-0.0246 15.6-0.0473 5.01-0.0217 10-0.0337 15-0.0389 1.91-0.00371 3.83-0.0109 5.74-0.0217 2.67-0.0144 5.34-0.0165 8.02-0.0156 0.797-0.00719 1.59-0.0144 2.42-0.0218 5.48 0.0207 5.48 0.0207 7.71 2.25 0.227 2.8 0.227 2.8 0.195 6.32-0.00645 1.26-0.0129 2.51-0.0195 3.81-0.0251 1.98-0.0251 1.98-0.0508 4-0.01 1.34-0.0192 2.68-0.0273 4.02-0.0236 3.29-0.0566 6.57-0.0977 9.86-5.68 0.25-5.68 0.25-8.56-2-3.29-4.04-6.3-8.3-8.33-13.1-1.43-2.44-2.47-2.86-5.11-3.88-3.1-0.366-3.1-0.366-6.52-0.414-1.25-0.0387-2.5-0.0773-3.79-0.117-1.3-0.0309-2.6-0.0619-3.95-0.0938-1.32-0.0387-2.63-0.0773-3.99-0.117-3.25-0.0943-6.5-0.18-9.76-0.258-0.0253 6.25-0.0428 12.5-0.0549 18.7-0.00504 2.13-0.0119 4.25-0.0205 6.38-0.0121 3.05-0.0178 6.1-0.0222 9.15-0.00516 0.957-0.0103 1.91-0.0156 2.9-7.55e-5 0.881-1.51e-4 1.76-2.29e-4 2.67-0.00222 0.779-0.00444 1.56-0.00673 2.36-0.0755 1.81-0.0755 1.81 1.12 2.79 6.16 0.516 12.3 0.454 18-2 1.27-2.27 2.12-4.55 3-7 1-2 1-2 4.19-3.13 2.81 0.125 2.81 0.125 3.81 1.12 0.0885 2.59 0.115 5.16 0.0977 7.75-0.00141 0.775-0.00283 1.55-0.00429 2.35-0.00562 2.49-0.0182 4.97-0.0309 7.46-0.00501 1.68-0.00958 3.36-0.0137 5.04-0.011 4.13-0.0283 8.26-0.0488 12.4-2.31-0.33-4.62-0.66-7-1-0.33-0.99-0.66-1.98-1-3h-2c-0.266-0.566-0.531-1.13-0.805-1.71-0.353-0.733-0.706-1.47-1.07-2.22-0.348-0.731-0.696-1.46-1.05-2.21-0.939-2.01-0.939-2.01-3.07-2.85-2.21-0.0709-4.42-0.0842-6.62-0.0625-1.78 0.0135-1.78 0.0135-3.6 0.0273-1.37 0.0174-1.37 0.0174-2.77 0.0352-1.19 2.37-1.12 3.8-1.11 6.45 7.55e-5 0.921 1.51e-4 1.84 2.29e-4 2.79 0.00516 0.996 0.0103 1.99 0.0156 3.02 0.00212 1.53 0.00212 1.53 0.00429 3.09 0.00561 3.26 0.0182 6.52 0.0309 9.78 0.00501 2.21 0.00958 4.41 0.0137 6.62 0.011 5.42 0.0278 10.8 0.0488 16.3 4.57 0.0746 9.14 0.129 13.7 0.165 1.55 0.015 3.11 0.0354 4.66 0.0615 2.24 0.0367 4.48 0.0535 6.72 0.0667 1.03 0.0232 1.03 0.0232 2.08 0.0469 5.07 0.00174 8.4-1.04 12.8-3.34 4.01-4.47 5.39-9.84 7.07-15.5 0.93-2.51 0.93-2.51 2.93-3.51 2.67-0.134 5.32-0.0432 8 0-0.495 1.49-0.495 1.49-1 3-0.0838 2.28-0.107 4.57-0.0977 6.86 0.00141 0.662 0.00283 1.32 0.00429 2 0.00559 2.11 0.0181 4.22 0.0309 6.33 0.00502 1.43 0.00958 2.86 0.0137 4.29 0.011 3.51 0.0283 7.01 0.0488 10.5-5.31 0.887-10.4 1.14-15.8 1.11-1.27 2.19e-4 -1.27 2.19e-4 -2.57 4.43e-4 -2.79-6.92e-4 -5.57-0.00845-8.36-0.0163-1.94-0.00187-3.88-0.00329-5.82-0.00429-5.09-0.00381-10.2-0.0136-15.3-0.0247-5.2-0.0103-10.4-0.0148-15.6-0.0198-10.2-0.0107-20.4-0.0278-30.6-0.0488-2.05-4.67-2.05-4.67-1.56-7.62 2.19-3.33 4.93-3.93 8.56-5.38 0.0232-12.8 0.0409-25.7 0.0518-38.5 0.00522-5.96 0.0123-11.9 0.0236-17.9 0.0109-5.75 0.0168-11.5 0.0194-17.3 0.00185-2.2 0.00546-4.39 0.0109-6.59 0.00724-3.07 0.00826-6.14 0.0078-9.22 0.0036-0.911 0.00719-1.82 0.0109-2.76-0.00137-0.838-0.00275-1.68-0.00417-2.54 9.22e-4 -0.726 0.00184-1.45 0.00279-2.2-0.128-2.12-0.544-4-1.12-6.04-0.784-0.124-1.57-0.248-2.38-0.375-2.62-0.625-2.62-0.625-4.62-2.62-1.24-4.52-1.24-4.52 0-7z" fill="#F8F8F8"/>
<path transform="translate(1201,186)" d="m0 0c11.3-0.0231 22.7-0.0409 34-0.0518 5.26-0.00523 10.5-0.0123 15.8-0.0236 5.07-0.0108 10.1-0.0168 15.2-0.0194 1.94-0.00185 3.88-0.00548 5.82-0.0109 2.71-0.00721 5.41-0.00826 8.12-0.0078 1.21-0.00539 1.21-0.00539 2.45-0.0109 5.53 0.0104 5.53 0.0104 6.65 1.12 0.0878 2.15 0.107 4.29 0.0977 6.44-0.00483 1.96-0.00483 1.96-0.00977 3.96-0.00836 1.39-0.0168 2.78-0.0254 4.17-0.00501 1.39-0.00958 2.79-0.0137 4.18-0.0118 3.42-0.0283 6.84-0.0488 10.3-6.67-0.758-6.67-0.758-9.62-2.94-2.64-3.4-4.29-6.81-5.97-10.8-1.79-2.93-3.33-3.79-6.41-5.3-3.18-0.499-3.18-0.499-6.61-0.512-1.25-0.0354-2.49-0.0709-3.78-0.107-1.94-0.0338-1.94-0.0338-3.92-0.0684-1.97-0.0512-1.97-0.0512-3.98-0.104-3.24-0.0824-6.47-0.152-9.71-0.209-0.0253 6.25-0.0428 12.5-0.0549 18.7-0.00504 2.13-0.0119 4.25-0.0205 6.38-0.0121 3.05-0.0178 6.1-0.0222 9.15-0.00516 0.957-0.0103 1.91-0.0156 2.9-7.55e-5 0.881-1.51e-4 1.76-2.29e-4 2.67-0.00222 0.779-0.00444 1.56-0.00673 2.36-0.0755 1.81-0.0755 1.81 1.12 2.79 6.01 0.447 12.6 0.769 18-2 1.05-2.13 1.05-2.13 1.88-4.56 0.883-2.44 0.883-2.44 2.12-4.44 3.02-1.1 5.81-1.17 9-1-0.495 0.99-0.495 0.99-1 2-0.0866 2.55-0.116 5.08-0.0977 7.63 0.00141 0.752 0.00283 1.5 0.00429 2.28 0.0056 2.4 0.0182 4.81 0.0309 7.21 0.00501 1.63 0.00958 3.26 0.0137 4.89 0.011 4 0.0283 7.99 0.0488 12-7.77-0.782-7.77-0.782-9.84-2.74-0.543-1.06-0.543-1.06-1.1-2.13-0.38-0.699-0.761-1.4-1.15-2.12-0.91-2.01-0.91-2.01-1.91-5.01-3.27-1.33-6.7-1.13-10.2-1.12-1.07-0.00258-2.13-0.00516-3.23-0.00781-2.51-0.16-2.51-0.16-3.58 1.13-0.093 1.47-0.117 2.95-0.114 4.43 7.55e-5 0.941 1.51e-4 1.88 2.29e-4 2.85 0.00516 1.02 0.0103 2.05 0.0156 3.1 0.00212 1.56 0.00212 1.56 0.00429 3.16 0.00562 3.34 0.0182 6.68 0.0309 10 0.00501 2.26 0.00958 4.52 0.0137 6.78 0.0111 5.55 0.0278 11.1 0.0488 16.7 4.55 0.0747 9.11 0.129 13.7 0.165 1.55 0.015 3.09 0.0354 4.64 0.0615 11.8 0.475 11.8 0.475 22.7-3.23 2.73-3.35 3.8-7.08 5.06-11.2 1.72-5.59 1.72-5.59 3.94-7.81 2.69-0.27 5.29-0.0874 8 0-0.495 1.49-0.495 1.49-1 3v31h-94c-1-6-1-6-0.5-8.12 2.29-2.87 5.3-4.11 8.5-5.88 0.0236-8.35 0.0412-16.7 0.0518-25 0.00513-3.88 0.012-7.76 0.0236-11.6 0.0469-16.1 9.79e-4 -32.2-0.517-48.4-0.039-1.27-0.078-2.53-0.118-3.84-0.0417-1.16-0.0833-2.32-0.126-3.51-0.0363-1.01-0.0725-2.03-0.11-3.07-0.113-2.65-0.113-2.65-1.2-5.53-1.63-1.22-1.63-1.22-3.56-2.19-1.13-0.598-2.27-1.2-3.44-1.81v-7z" fill="#F9F9F9"/>
<path transform="translate(1571,187)" d="m0 0c0.66 0.66 1.32 1.32 2 2 3.73 0.383 4.78 0.149 8-2 2.04-0.195 2.04-0.195 4.19-0.125 1.26 0.0412 2.52 0.0825 3.81 0.125-0.33 0.66-0.66 1.32-1 2-0.0857 2.25-0.107 4.5-0.0977 6.76 0.00141 0.663 0.00283 1.33 0.00429 2.01 0.0056 2.12 0.0182 4.24 0.0309 6.36 0.00501 1.44 0.00958 2.87 0.0137 4.31 0.011 3.52 0.0283 7.04 0.0488 10.6-8.08-0.345-8.08-0.345-11.4-2.73-1.72-2.51-2.65-4.75-3.56-7.65-1.9-5.52-3.69-9.85-8.44-13.5-6.65-2.1-13.7-2.42-20.1 0.5-4.44 4.32-6.74 8.08-7.65 14.2 0.342 3.54 1.54 6.1 3.21 9.22 2.57 2.24 2.57 2.24 5.81 3.88 0.593 0.325 1.19 0.649 1.8 0.984 6.62 3.49 13.6 6.23 20.6 8.91 8.17 3.18 15 6.52 20.6 13.5 0.717 0.871 1.43 1.74 2.17 2.64 5.09 7.61 6.73 13.9 6.58 23 0.0232 1.39 0.0232 1.39 0.0469 2.8-0.061 10.9-4.16 19.4-11.5 27.3-10.3 9.63-23.4 13.5-37.2 13.3-6.83-0.598-13.8-2.32-20-5.46-1.91-1.09-1.91-1.09-4.79-0.867-0.495 0.99-0.495 0.99-1 2-3.96 1.32-6.82 1.27-11 1-2.4-3.6-2.25-5.25-2.23-9.53 0.0029-1.93 0.0029-1.93 0.00586-3.89 0.0062-0.669 0.0124-1.34 0.0188-2.03 0.0182-2.04 0.0205-4.08 0.0203-6.12 0.0452-10 0.0452-10 1.19-13.4 2.97 0.33 5.94 0.66 9 1 0.33 1.32 0.66 2.64 1 4 0.885 1.9 1.83 3.77 2.81 5.62 0.752 1.44 0.752 1.44 1.52 2.91 1.78 2.63 2.85 3.21 5.67 4.46 0.66 0.99 1.32 1.98 2 3 8.14 4.64 17 6.35 26.2 4.57 5.4-1.69 8.7-4.88 11.8-9.57 2-6.01 1.89-12-0.875-17.8-5.29-8.38-15.7-11.6-24.4-15.5-18.3-8.37-18.3-8.37-23.8-13.7v-2h-2c-4-4.35-4-4.35-4-8h-2c-3.53-7.69-4.14-17.7-1.85-25.9 4.74-12 12.6-19.6 24.1-25 10.6-4.38 24.7-3.51 34.7 1.87z" fill="#FAFAFA"/>
<path transform="translate(1117,1)" d="m0 0c1.93 0.0508 1.93 0.0508 4 1 1.16 2.73 1.16 2.73 2.06 6.19 1.23 4.62 2.74 8.57 4.94 12.8 0.495 1.34 0.956 2.7 1.38 4.06 1.22 3.81 2.61 7.52 4.06 11.2 1.69 4.34 3.25 8.69 4.69 13.1 1.33 4.07 2.92 7.74 4.88 11.6 0.756 2.12 1.44 4.27 2.13 6.41 0.971 2.88 2.07 5.69 3.18 8.52 2.1 5.39 3.96 10.8 5.75 16.3 1.99 6.1 4.17 12 6.94 17.8 1.1 2.66 2.09 5.27 3 8 2.38 1.18 2.38 1.18 5 2 3 1 3 1 5 4v7h-49c-1-5-1-5 0-9 4.45-0.99 4.45-0.99 9-2-0.482-1.3-0.964-2.6-1.46-3.95-0.638-1.73-1.28-3.45-1.91-5.18-0.317-0.856-0.634-1.71-0.961-2.59-0.309-0.838-0.619-1.68-0.938-2.54-0.424-1.15-0.424-1.15-0.857-2.32-1-2.79-1.93-5.61-2.87-8.43-13.2 0.33-26.4 0.66-40 1-0.99 3.3-1.98 6.6-3 10-1.69 4.88-1.69 4.88-2.45 6.99-0.727 2.3-0.727 2.3-0.551 6.01 1.09 0.433 2.19 0.866 3.31 1.31 5.16 2.25 5.16 2.25 6.69 4.69v6h-34c-0.33-2.31-0.66-4.62-1-7 2.1-1.63 4.04-3.02 6.44-4.19 6.75-4.77 9.25-13.6 11.9-21.1 0.388-1.05 0.776-2.11 1.18-3.19 2.7-7.38 5.29-14.8 7.85-22.2 2.39-6.87 5.07-13.6 7.82-20.3 2.23-5.5 4.23-11 5.99-16.7 0.789-2.31 0.789-2.31 1.88-4.34 1.08-2.35 1.14-4.03 1.1-6.6-0.00967-1.16-0.00967-1.16-0.0195-2.35-0.0475-2.09-0.0475-2.09-1.17-4.02-0.231-5.54-0.231-5.54 1-8 1.97-1.06 3.98-2.05 6-3 2.1-1.04 4.21-2.08 6.31-3.12 1.05-0.518 2.1-1.04 3.18-1.57 2.39-1.08 2.39-1.08 3.51-2.3zm-13 42c-3.49 8.87-3.49 8.87-6.62 17.9-1.46 4.52-3.36 8.81-5.27 13.2-0.284 0.69-0.567 1.38-0.859 2.09-0.263 0.621-0.526 1.24-0.797 1.88-0.708 2.49-0.708 2.49 0.547 6.99h30c-1.25-5.61-2.25-10.1-4.28-15.3-0.431-1.11-0.862-2.22-1.31-3.37-0.447-1.13-0.893-2.27-1.35-3.43-0.443-1.14-0.886-2.28-1.34-3.46-2.15-5.51-4.34-11-6.72-16.4h-2z" fill="#FCFCFC"/>
<path transform="translate(766 4.74)" d="m0 0c1.55-0.00946 1.55-0.00946 3.13-0.0191 1.68 0.00607 1.68 0.00607 3.4 0.0123 1.15-0.00191 2.29-0.00383 3.47-0.0058 2.43-0.00136 4.86 0.00234 7.28 0.0107 3.73 0.0107 7.45 1.08e-4 11.2-0.0127 2.35 0.00132 4.71 0.00388 7.06 0.00781 1.12-0.00405 2.24-0.0081 3.4-0.0123 1.03 0.0063 2.07 0.0126 3.13 0.0191 1.37 0.00239 1.37 0.00239 2.77 0.00482 2.2 0.254 2.2 0.254 4.2 2.25-0.375 3.62-0.375 3.62-1 7-2.64 0.66-5.28 1.32-8 2-0.638 6.51 1.33 10.3 4.62 15.8 0.457 0.794 0.914 1.59 1.39 2.41 2.85 4.93 5.77 9.82 8.76 14.7 1.27 2.18 2.31 4.39 3.36 6.68 1.44 3.56 1.44 3.56 3.99 4.15 0.621 0.0941 1.24 0.188 1.88 0.285 1.26-2.52 2.51-5.04 3.75-7.56 3.23-6.45 6.63-12.8 10.4-19 0.366-0.606 0.733-1.21 1.11-1.84 1.05-1.73 2.12-3.45 3.19-5.17 1.89-4.24 1.83-6.87 1.54-11.5-0.763 0.0825-1.53 0.165-2.31 0.25-2.69-0.25-2.69-0.25-4.5-1.94-1.36-2.65-1.43-4.37-1.19-7.31 4.56-2.28 10.9-1.23 15.9-1.25 1.29-0.0206 2.59-0.0412 3.92-0.0625 1.24-0.00516 2.48-0.0103 3.76-0.0156 1.71-0.014 1.71-0.014 3.45-0.0283 3.29 0.392 4.69 1 6.99 3.36 0.25 2.69 0.25 2.69 0 5-0.557 0.21-1.11 0.42-1.69 0.637-8.06 3.66-11.3 9.91-15.3 17.4-0.828 1.5-1.66 2.99-2.49 4.49-1.84 3.33-3.67 6.66-5.49 10-3.31 6.05-6.69 12.1-10.1 18.1-0.56 0.994-1.12 1.99-1.7 3.01-0.524 0.926-1.05 1.85-1.59 2.81-0.696 1.23-0.696 1.23-1.41 2.49-1.02 1.75-2.12 3.45-3.25 5.13-0.184 2.78-0.256 5.46-0.23 8.25 4.58e-4 0.808 9.16e-4 1.62 0.00139 2.45 0.00302 1.71 0.0109 3.41 0.0233 5.12 0.0182 2.61 0.0205 5.22 0.0203 7.83 0.00492 1.66 0.0107 3.32 0.0176 4.98 0.00111 0.779 0.00223 1.56 0.00337 2.36-0.0222 5.11-0.0222 5.11 1.16 10 2.33 1.02 4.66 2.01 7 3 2.69 3.39 2 5.3 2 10h-47c-0.66-1.98-1.32-3.96-2-6 2.02-2.36 3.03-3.01 6.12-3.88 3.11-1.8 3.11-1.8 3.37-4.67 0.191-3.48 0.377-6.96 0.507-10.5 0.0686-1.75 0.0686-1.75 0.139-3.53 0.404-15.5 0.104-27.5-9.83-39.8-2.11-2.74-3.69-5.67-5.37-8.7-0.642-1.13-1.28-2.27-1.95-3.44-1.4-2.5-2.79-5-4.17-7.5-2.24-4.04-4.51-8.06-6.82-12.1-0.378-0.657-0.756-1.31-1.15-1.99-4.41-7.56-8.08-12.6-15.9-17-0.625-2.69-0.625-2.69 0-5 2.54-2.54 3.44-2.25 6.97-2.26z" fill="#FDFDFD"/>
<path transform="translate(331,16)" d="m0 0h5v3c1.49-0.495 1.49-0.495 3-1 2.01 0.276 4.01 0.602 6 1 0.201 3.72 0.152 4.77-2 8-3.3 1.02-4.67 1.11-8 0v-2c-2.33 0.959-2.33 0.959-4 4-2.62 0.188-2.62 0.188-5 0-0.33 0.66-0.66 1.32-1 2 1.98 0.99 1.98 0.99 4 2-4.42 2.21-8.12 2-13 2-1.68 0.639-3.35 1.3-5 2-3.31 0.125-3.31 0.125-6 0v-3c-0.99-0.33-1.98-0.66-3-1h4c0.33 0.33 0.66 0.66 1 1v-1h8v-2c-4.95 0.495-4.95 0.495-10 1v-2h-5c0.27 2.44 0.27 2.44 1 5 0.99 0.66 1.98 1.32 3 2h-3c-0.33 0.99-0.66 1.98-1 3h-10c1.98 2.48 1.98 2.48 4 5-0.99 0.66-1.98 1.32-3 2 0.99 0.99 1.98 1.98 3 3-0.928 0.412-1.86 0.825-2.81 1.25-3.21 1.43-3.21 1.43-4.49 3.76-2.38 2.8-4.43 2.94-8.01 3.62-1.24 0.238-2.49 0.477-3.77 0.723-4.94 0.822-9.89 1.52-14.9 2.12-2.96 0.51-5.3 1.39-8.06 2.53-3.97 0.904-7.97 1.45-12 2-1.03 0.161-2.06 0.322-3.12 0.488-11.9 1.42-24.7-0.745-36.1-4.55-3.46-1.15-6.92-1.63-10.5-2.12-11.2-1.65-22.3-3.95-33.4-6.21-0.719-0.146-1.44-0.292-2.18-0.443-1.43-0.291-2.86-0.582-4.29-0.875-3.67-0.745-7.34-1.46-11-2.13-0.741-0.136-1.48-0.271-2.24-0.411-1.42-0.257-2.83-0.511-4.25-0.761-4.79-0.868-4.79-0.868-5.9-1.98-1.85-0.287-3.7-0.526-5.56-0.75-7.9-1.07-15.7-2.7-23.5-4.36-5.94-1.26-11.9-2.48-17.9-3.58-1.24-0.232-2.48-0.464-3.75-0.703-2.16-0.39-4.33-0.757-6.5-1.09-0.908-0.15-1.82-0.299-2.75-0.453-0.761-0.112-1.52-0.224-2.3-0.34-1.82-0.723-1.82-0.723-3.08-2.79-0.367-0.957-0.367-0.957-0.742-1.93 4.39-0.702 8.56-1.11 13-1-1.06-1.29-1.06-1.29-3.5-1.1-1.01 0.0116-2.02 0.0232-3.06 0.0352-1.01 0.00902-2.02 0.018-3.07 0.0273-0.782 0.0116-1.56 0.0232-2.37 0.0352-0.33-0.99-0.66-1.98-1-3 2.45-1.22 4.14-1.17 6.88-1.19 1.3-0.0213 1.3-0.0213 2.62-0.043 2.63 0.242 4.25 0.901 6.51 2.23 0.99-0.66 1.98-1.32 3-2 2.26 0.0234 2.26 0.0234 4.69 0.375l2.45 0.336 1.86 0.289v2h-7v2c2.31 0.33 4.62 0.66 7 1v2h3v-5c0.33 0.66 0.66 1.32 1 2h3c0.495 0.99 0.495 0.99 1 2 2.59 0.468 2.59 0.468 5.56 0.625 1.52 0.112 1.52 0.112 3.07 0.227 1.17 0.0735 1.17 0.0735 2.37 0.148v-4h-6v-5h-3v-2c-0.66-0.33-1.32-0.66-2-1 0.66-0.66 1.32-1.32 2-2v-1c4.75-0.125 4.75-0.125 7 1h3.56 3.44c0.495 0.495 0.495 0.495 1 1 2.53 0.0731 5.03 0.0925 7.56 0.0625 0.711-0.00451 1.42-0.00902 2.15-0.0137 1.76-0.0118 3.52-0.0298 5.28-0.0488v2h2v2c0.675-0.0116 1.35-0.0232 2.05-0.0352 0.892-0.00902 1.78-0.018 2.7-0.0273l2.67-0.0352c2.36 0.0894 4.32 0.429 6.58 1.1v2c1.3 0.124 2.6 0.248 3.94 0.375 2.21 0.211 2.21 0.211 4.06 0.625 0.495 0.99 0.495 0.99 1 2h-3c1.6 3.1 1.6 3.1 3.88 3.55 3.89 0.353 7.49 0.514 11.4-0.0469 3.37-0.449 5.52-0.408 8.75 0.5v-2c7.52-0.157 14.6 0.386 22 2v3c1.89-0.0928 1.89-0.0928 3.81-0.188 3.91-0.0208 3.91-0.0208 6.19 1.69 0.33 0.495 0.66 0.99 1 1.5v-2c1.07 0.309 2.15 0.619 3.25 0.938 1.95 0.552 3.9 1.1 5.88 1.56 1.87 0.5 1.87 0.5 4.12 1.56 4.47 1.52 8.84 1.34 13.4 0.375 2.31-0.438 2.31-0.438 4.81 0.188 2.64 0.637 2.64 0.637 5.31-1 0.722-0.536 1.44-1.07 2.19-1.62v-1h6c0.33 1.32 0.66 2.64 1 4v-4c4.95-0.99 4.95-0.99 10-2v-2h7c0.33-0.66 0.66-1.32 1-2 2.63 0 5.08 0.198 7.69 0.5 0.808 0.0928 1.62 0.186 2.45 0.281 0.615 0.0722 1.23 0.144 1.86 0.219v-2h13c-0.33-1.32-0.66-2.64-1-4h19c0.33-0.66 0.66-1.32 1-2 1.65 0.99 3.3 1.98 5 3v-3h-4v-2h4v-2c2.99-0.872 5.64-1.11 8.75-1.06 0.799 0.00902 1.6 0.018 2.42 0.0273 0.603 0.0116 1.21 0.0232 1.83 0.0352v-2c-1.98-0.495-1.98-0.495-4-1 0.33-0.66 0.66-1.32 1-2z" fill="#BB9454"/>
<path transform="translate(570 4.76)" d="m0 0c1.22 0.00666 1.22 0.00666 2.46 0.0135 0.921 1.51e-4 1.84 3.02e-4 2.79 4.58e-4 0.996 0.0103 1.99 0.0206 3.02 0.0313 1.02 0.00283 2.04 0.00566 3.09 0.00858 3.26 0.0112 6.52 0.0363 9.78 0.0617 2.21 0.01 4.41 0.0192 6.62 0.0273 5.42 0.0221 10.8 0.0556 16.3 0.0977 1.43 2.86 1.39 4.84 1 8-2.85 2.31-4.31 3-8 3v2h-2v102c18.8 1.25 18.8 1.25 36-6 1.25-2.07 1.25-2.07 2.12-4.38 0.331-0.793 0.663-1.59 1-2.4 0.67-1.71 1.31-3.43 1.93-5.16 0.938-2.06 0.938-2.06 3.94-4.06 3.19-0.125 3.19-0.125 6 0-0.33 0.66-0.66 1.32-1 2v31h-87c-2-5-2-5-1.56-7.19 1.56-1.81 1.56-1.81 8.56-3.81-0.33-34.3-0.66-68.6-1-104-1.98-0.66-3.96-1.32-6-2-2-2-2-2-2.25-4.5 0.312-3.12 1.02-4.35 4.24-4.74z" fill="#FCFCFC"/>
<path transform="translate(370,120)" d="m0 0c0.932 0.32 1.86 0.639 2.82 0.969 5.83 1.67 11.9 1.46 17.9 1.6 1.36 0.0445 1.36 0.0445 2.76 0.0898 0.825 0.0187 1.65 0.0374 2.5 0.0566 2.04 0.287 2.04 0.287 4.04 2.29 0.258 2.59 0.421 5.1 0.5 7.69 0.0157 9.34 0.0157 9.34 4.38 17.1 5.38 2.78 9.06 4.1 15.1 3.22 3.77-1.35 6.4-3.1 8.66-6.5 1.79-4.66 1.91-8.92 2.03-13.9 0.0342-0.927 0.0683-1.85 0.104-2.81 0.082-2.27 0.151-4.54 0.209-6.82 1.01-0.0376 1.01-0.0376 2.03-0.0759 3.05-0.116 6.1-0.239 9.16-0.362 1.06-0.0393 2.11-0.0786 3.2-0.119 1.02-0.0419 2.04-0.0838 3.1-0.127 1.41-0.055 1.41-0.055 2.84-0.111 2.7-0.147 2.7-0.147 5.4-0.788 2.28-0.418 2.28-0.418 4.28 0.582 0.126 3.91 0.215 7.82 0.275 11.7 0.0369 1.97 0.101 3.94 0.165 5.91 0.149 11.7-2.78 21.2-10.4 30.3-9.94 10.1-21.6 14.8-35.6 15.4-13.7-0.169-25.3-6.11-35-15.6-5.44-5.65-5.44-5.65-5.44-9.75h-2c-2.4-6.92-3.52-13.3-3.75-20.6-0.0425-0.881-0.0851-1.76-0.129-2.67-0.227-5.71 0.121-11.1 0.879-16.8z" fill="#BC9556"/>
<path transform="translate(1,120)" d="m0 0c1.36 0.476 1.36 0.476 2.75 0.961 5.3 1.52 10.7 1.5 16.2 1.66 1.07 0.0387 2.13 0.0773 3.23 0.117 2.61 0.0937 5.22 0.179 7.83 0.258-0.33 0.66-0.66 1.32-1 2 0.0635 3.28 0.474 6.55 0.812 9.81 0.125 1.35 0.125 1.35 0.252 2.74 0.612 6.45 0.612 6.45 2.94 12.5 1.84 0.772 1.84 0.772 4 1 1.11 0.526 1.11 0.526 2.25 1.06 4.35 1.48 8.44 1.81 12.8 0.18 3.59-1.9 5.54-3.49 7-7.24 0.435-2.39 0.435-2.39 0.598-4.95 0.0793-0.93 0.159-1.86 0.24-2.82 0.111-1.45 0.111-1.45 0.225-2.92 0.154-1.92 0.311-3.84 0.473-5.76 0.0658-0.849 0.132-1.7 0.199-2.57 0.265-1.98 0.265-1.98 1.27-2.98 1.57-0.133 3.15-0.203 4.73-0.246 0.967-0.0329 1.93-0.0657 2.93-0.0996 2.04-0.0607 4.08-0.118 6.12-0.172 0.972-0.0342 1.94-0.0683 2.95-0.104 0.889-0.0251 1.78-0.0501 2.69-0.0759 2.81-0.331 4.97-1.23 7.57-2.3h3c-0.33 0.99-0.66 1.98-1 3 0.311 1.34 0.648 2.67 1 4 0.605 16.9-0.698 31.4-12.2 44.3-10.3 9.99-22.6 14.1-36.8 13.9-15.1-1.08-25.8-8.34-35.9-19.2-7.32-8.95-7.65-19.3-7.89-30.5-0.0425-1.27-0.0851-2.55-0.129-3.86-0.268-9.35-0.268-9.35 0.879-11.6z" fill="#BD9656"/>
<path transform="translate(1005 4.74)" d="m0 0c0.874-0.0063 1.75-0.0126 2.65-0.0191 1.42 0.00607 1.42 0.00607 2.87 0.0123 0.969-0.00191 1.94-0.00383 2.94-0.0058 2.05-0.00136 4.1 0.00234 6.15 0.0107 3.15 0.0107 6.29 1.07e-4 9.44-0.0127 1.99 0.00132 3.98 0.00388 5.97 0.00781 0.946-0.00405 1.89-0.0081 2.87-0.0123 0.874 0.0063 1.75 0.0126 2.65 0.0191 1.16 0.00239 1.16 0.00239 2.34 0.00482 1.9 0.254 1.9 0.254 3.9 2.25 0.625 2.81 0.625 2.81 0 6-1.95 1.59-3.93 2.75-6.15 3.92-2.01 0.947-2.01 0.947-2.85 3.08-0.0913 1.33-0.122 2.67-0.12 4-0.00137 0.836-0.00275 1.67-0.00417 2.53 0.0036 0.919 0.00719 1.84 0.0109 2.78-1.46e-4 0.966-2.92e-4 1.93-4.43e-4 2.93 6.99e-4 3.2 0.00849 6.41 0.0163 9.61 0.00186 2.22 0.00329 4.43 0.00429 6.65 0.00382 5.84 0.0137 11.7 0.0247 17.5 0.0102 5.96 0.0148 11.9 0.0198 17.9 0.0107 11.7 0.0278 23.4 0.0488 35.1 0.798 0.286 1.6 0.572 2.42 0.867 2.58 1.13 2.58 1.13 3.89 3.26 0.227 0.619 0.454 1.24 0.688 1.88h2v6h-47c-0.495-2.48-0.495-2.48-1-5 2.17-2.61 4.09-4.55 7.15-6.06 3.09-3.23 2.38-7.02 2.32-11.3 0.00219-0.961 0.00438-1.92 0.00664-2.91 0.00232-3.18-0.024-6.37-0.0508-9.55-0.00492-2.21-0.00822-4.42-0.00996-6.62-0.00765-4.63-0.0282-9.26-0.0591-13.9-0.0396-5.94-0.0576-11.9-0.0673-17.8-0.00997-5.66-0.0299-11.3-0.0511-17-0.0034-1.08-0.00679-2.17-0.0103-3.28-0.0116-3.06-0.0301-6.12-0.051-9.18-0.00269-0.91-0.00538-1.82-0.00815-2.76-0.00716-0.833-0.0143-1.67-0.0217-2.52-0.00427-0.723-0.00855-1.45-0.0129-2.19-0.0705-2.13-0.0705-2.13-1.13-4.91-1.65-0.717-3.31-1.38-5-2-2.38-2.38-2.67-3.7-3-7 2.41-2.41 2.95-2.25 6.23-2.26z" fill="#FDFDFD"/>
<path transform="translate(126,133)" d="m0 0c0.0251 0.623 0.0501 1.25 0.0759 1.89 0.118 2.91 0.239 5.82 0.362 8.74 0.0437 1.05 0.0873 2.09 0.132 3.17 0.299 6.9 0.723 13.8 1.34 20.7 0.0859 2.55 0.0859 2.55-0.914 5.55h7c0.33 0.99 0.66 1.98 1 3 0.99 0.33 1.98 0.66 3 1v2h2v3h2c3.27 7.02 4.71 13.3 5 21 0.462-7.47 0.0856-13.2-3.22-19.9-0.777-2.06-0.777-2.06 0.223-5.06-0.33-0.99-0.66-1.98-1-3h2v2h2c0.33 2.97 0.66 5.94 1 9h2c0.706 6.53 1.23 13 1.54 19.6 0.0432 0.896 0.0863 1.79 0.131 2.71 0.137 2.92 0.268 5.83 0.397 8.75 0.0442 1.01 0.0884 2.01 0.134 3.05 2.47 57.5 2.47 57.5-1.2 83.9h-3v-13c-1.85 1.85-1.39 4.88-1.56 7.38-0.0838 1.16-0.168 2.33-0.254 3.52-0.12 2.03-0.184 4.07-0.184 6.1h-25c0.33-2.31 0.66-4.62 1-7 0.0784-1.72 0.118-3.45 0.114-5.17-7.05e-5 -0.971-1.41e-4 -1.94-2.14e-4 -2.94-0.00517-1.04-0.0103-2.09-0.0157-3.17-0.00146-1.12-0.00292-2.24-0.00443-3.39-0.0038-2.43-0.00991-4.86-0.0181-7.29-0.0129-3.89-0.0193-7.79-0.0241-11.7-0.0129-9.71-0.0371-19.4-0.0614-29.1-0.0235-9.47-0.042-18.9-0.0521-28.4-0.00152-1.32-0.00304-2.64-0.00461-4-0.0179-24 0.364-47.9 1.07-71.8 2-1 2-1 3-1z" fill="#BA9454"/>
<path transform="translate(62,365)" d="m0 0c0.898 0.307 1.8 0.614 2.72 0.93 5.46 1.56 11.1 1.79 16.7 2.2 1.11 0.0864 2.23 0.173 3.37 0.262 2.73 0.211 5.46 0.415 8.19 0.613-0.00524 0.772-0.0105 1.54-0.0159 2.34-0.0208 3.49-0.0338 6.98-0.0466 10.5-0.00838 1.21-0.0168 2.43-0.0254 3.68-0.00322 1.16-0.00645 2.33-0.00977 3.53-0.00524 1.07-0.0105 2.15-0.0159 3.25-0.00842 2.82-0.00842 2.82 1.11 5.73 90.8 0.33 182 0.66 275 1v2c-0.871 3.26e-4 -0.871 3.26e-4 -1.76 6.59e-4 -34.4 0.0135-68.8 0.0529-103 0.126-4.13 0.00877-8.25 0.0173-12.4 0.0257-1.23 0.00252-1.23 0.00252-2.49 0.00509-13.3 0.0267-26.6 0.0358-39.9 0.0384-13.7 0.00306-27.3 0.025-41 0.0645-8.43 0.0238-16.9 0.0328-25.3 0.023-5.78-0.0053-11.6 0.00765-17.3 0.0351-3.34 0.0153-6.67 0.0197-10 0.00793-3.61-0.0115-7.22 0.00735-10.8 0.0342-1.06-0.0107-2.12-0.0213-3.22-0.0323-2.63 0.0367-5.02 0.0889-7.58 0.672-2.28 2.34-2.28 2.34-3 5-1.32-0.33-2.64-0.66-4-1 0.33 1.32 0.66 2.64 1 4h-2c-0.0825 1.11-0.165 2.23-0.25 3.38-0.75 3.62-0.75 3.62-2.31 4.75-3.33 1.19-6.72 1.86-10.2 2.5-0.697 0.134-1.39 0.268-2.11 0.406-1.71 0.328-3.42 0.649-5.14 0.969-0.495-1.49-0.495-1.49-1-3-0.671-0.462-1.34-0.924-2.03-1.4-1.97-1.6-1.97-1.6-2.45-3.72 0.00587-0.816 0.0117-1.63 0.0178-2.47-0.00293-0.928-0.00585-1.86-0.00887-2.81 0.0175-1 0.035-2 0.0531-3.03 0.00329-1.03 0.00658-2.06 0.00996-3.12 0.0104-2.18 0.0304-4.36 0.0591-6.53 0.044-3.33 0.0614-6.67 0.0735-10 0.0134-2.12 0.0284-4.23 0.0449-6.35 0.00739-0.998 0.0148-2 0.0224-3.02 0.0128-0.931 0.0257-1.86 0.0389-2.82 0.00984-0.817 0.0197-1.63 0.0298-2.48 0.144-2.2 0.541-4.13 1.15-6.25z" fill="#856A3D"/>
<path transform="translate(1254,63)" d="m0 0h3c0.688 3.31 0.688 3.31 1 7-1.31 1.44-1.31 1.44-3 3-5.68 8.61-6.43 18-5 28 1.59 6.03 4.24 9.83 9.31 13.4 1.54 0.891 3.1 1.75 4.69 2.56 0.628 0.351 1.26 0.701 1.9 1.06 6.12 2.9 12.6 2.15 19.1 0.938 4.05-1.45 7.43-3.62 11-6 2.21 5.41 2.21 5.41 1.28 8.02-4.04 6.26-12.9 11-20 12.6-8.9 1.11-18.7 1.44-27.2-1.59-0.626-0.222-1.25-0.443-1.9-0.672-7.76-3.25-14.7-10-18.7-17.4-3.02-8.07-2.98-19.4 0.5-27.2 0.681-1.24 1.39-2.48 2.12-3.69 0.675-1.33 1.34-2.66 2-4h2c0.268-0.598 0.536-1.2 0.812-1.81 1.19-2.19 2.28-3.6 4.19-5.19h2v-2c1.46-0.838 2.91-1.67 4.38-2.5 0.812-0.464 1.62-0.928 2.46-1.41 2.16-1.09 2.16-1.09 4.16-1.09v-2z" fill="#FBFBFB"/>
<path transform="translate(809,370)" d="m0 0c4.23-0.075 8.46-0.129 12.7-0.165 1.44-0.015 2.87-0.0353 4.31-0.0615 9.47-0.168 18.3-0.112 26.7 4.85 3.28 3.46 5.83 7.28 8.25 11.4 0.545 0.892 1.09 1.78 1.65 2.7 1.77 4.33 1.83 8.04 1.79 12.7 0.03 1.22 0.03 1.22 0.0605 2.46-0.00557 6.95-1.85 12.1-6.39 17.4-10.8 9.05-21.4 8.97-35 8.98-1.23 0.0122-2.47 0.0245-3.74 0.0371-1.76 0.0029-1.76 0.0029-3.56 0.00586-1.07 0.00411-2.14 0.00822-3.24 0.0125-2.58-0.243-2.58-0.243-4.58-2.24-0.247-2.31-0.247-2.31-0.243-5.23-0.00308-1.09-0.00615-2.18-0.00932-3.31 0.00719-1.18 0.0144-2.37 0.0218-3.59 4.58e-4 -1.21 9.16e-4 -2.42 0.00139-3.67 0.00303-2.56 0.0109-5.13 0.0233-7.69 0.0182-3.93 0.0205-7.87 0.0203-11.8 0.00492-2.49 0.0107-4.98 0.0176-7.46 0.00111-1.18 0.00223-2.36 0.00337-3.58 0.00638-1.09 0.0128-2.19 0.0193-3.32 0.00381-0.964 0.00762-1.93 0.0116-2.92 0.134-2.44 0.134-2.44 1.13-5.44zm10.3 11c-2.07 3.15-1.69 6.48-1.64 10.1 0.00187 0.792 0.00375 1.58 0.00568 2.4 0.00672 1.67 0.0206 3.35 0.0412 5.02 0.0312 2.57 0.041 5.14 0.0469 7.71 0.00917 1.62 0.0195 3.25 0.0312 4.87 0.00425 0.773 0.0085 1.55 0.0129 2.34-0.277 3.56-0.277 3.56 1.19 6.53 8.78 1.5 19.2 2.06 27.3-2.19 4.39-3.39 6.57-7.43 7.73-12.8 0.509-5.59-0.632-10.6-2-16h-2c-0.0877-0.615-0.175-1.23-0.266-1.86-0.544-2.24-0.544-2.24-2.41-3.37-0.686-0.316-1.37-0.632-2.08-0.957-1.01-0.485-1.01-0.485-2.05-0.98-4.9-1.85-9.62-2.02-14.8-2.08-1.31-0.0258-2.62-0.0516-3.98-0.0781-3.24 0.0676-3.24 0.0676-5.09 1.34z" fill="#EFEFEF"/>
<path transform="translate(1231,370)" d="m0 0c4.23-0.075 8.46-0.129 12.7-0.165 1.44-0.015 2.87-0.0353 4.31-0.0615 19.7-0.35 19.7-0.35 26.5 5.29 0.495 0.639 0.99 1.28 1.5 1.94 0.66 0.66 1.32 1.32 2 2 2.3 2.3 3.22 4.36 4.56 7.31 0.434 0.945 0.869 1.89 1.32 2.86 3.21 8.1 2.78 16.6 0.121 24.8-3.25 6.26-8.62 11.5-15.1 14.4-5.61 1.19-11 1.75-16.7 1.72-1.24-0.00322-2.48-0.00645-3.76-0.00977-1.28-0.00838-2.55-0.0168-3.87-0.0254-1.96-0.00677-1.96-0.00677-3.95-0.0137-3.2-0.0117-6.41-0.0282-9.61-0.0488-1.28-2.56-1.13-4.37-1.13-7.23-0.00315-1.09-0.0063-2.18-0.00955-3.31 0.00202-1.18 0.00405-2.37 0.00613-3.59-9.57e-4 -1.21-0.00191-2.42-0.0029-3.67-6.82e-4 -2.56 0.00117-5.13 0.00534-7.69 0.00534-3.93 5.65e-5 -7.87-0.00635-11.8 6.61e-4 -2.49 0.00194-4.98 0.00391-7.46-0.00202-1.18-0.00405-2.36-0.00613-3.58 0.00315-1.09 0.0063-2.19 0.00955-3.32 7.96e-4 -0.964 0.00159-1.93 0.00241-2.92 0.127-2.44 0.127-2.44 1.13-5.44zm10.3 11c-2.09 3.14-1.71 6.47-1.65 10.1 0.00187 0.792 0.00375 1.58 0.00568 2.4 0.00672 1.67 0.0206 3.35 0.0412 5.02 0.0312 2.57 0.041 5.14 0.0469 7.71 0.00917 1.62 0.0195 3.25 0.0312 4.87 0.00425 0.773 0.0085 1.55 0.0129 2.34-0.277 3.56-0.277 3.56 1.19 6.53 3.39 0.28 6.79 0.232 10.2 0.25 0.947 0.0206 1.89 0.0412 2.87 0.0625 6.39 0.0357 11-0.505 15.8-5.07 0.478-0.597 0.956-1.19 1.45-1.81 0.491-0.599 0.982-1.2 1.49-1.82 3.4-4.6 2.49-10.1 2.2-15.6-0.423-2.58-1.02-4.55-2-7-0.66-0.33-1.32-0.66-2-1-0.227-0.619-0.454-1.24-0.688-1.88-2.31-3.75-6.47-4.67-10.6-5.69-3.3-0.527-6.5-0.641-9.84-0.684-1.83-0.0387-1.83-0.0387-3.7-0.0781-3.05 0.0865-3.05 0.0865-4.86 1.34z" fill="#EFEFEF"/>
<path transform="translate(957,373)" d="m0 0c3.04 2.63 5.04 5.42 7.06 8.88 0.729 1.23 0.729 1.23 1.47 2.49 0.483 0.869 0.967 1.74 1.46 2.63 0.822 1.4 0.822 1.4 1.66 2.83 1.59 3.76 1.8 7.04 1.71 11-0.0109 0.71-0.0218 1.42-0.033 2.15-0.262 8.58-2.42 13.9-8.24 20.1-7.07 6.16-15.2 8.18-24.4 8.04-8.14-0.64-14.8-3.55-20.7-9.21-1.85-2.26-3.4-4.55-5-7-0.66-0.66-1.32-1.32-2-2-0.389-1.99-0.719-3.99-1-6-0.267-0.959-0.267-0.959-0.539-1.94-1.78-7.98 1.87-16.5 5.86-23.3 4.56-6.61 10.6-10.9 18.5-12.5 8.69-1.13 16.3-0.413 24.2 3.71zm-35 16c-3.18 6.83-3.69 13.7-2 21 0.66 0.66 1.32 1.32 2 2 0.701 0.784 1.4 1.57 2.12 2.38 4.81 4.39 9.28 6.83 15.9 7.12 5.77-0.266 10.4-1.99 14.6-6 4.1-4.69 4.58-8.25 4.62-14.3 0.0142-1.2 0.0284-2.41 0.043-3.64-0.229-3.52-0.96-6.26-2.23-9.54h-2c-0.258-0.614-0.516-1.23-0.781-1.86-2.09-3.67-5.31-4.86-9.22-6.14-9.2-1.46-17.3 1.51-23 9z" fill="#ECECEC"/>
<path transform="translate(401,365)" d="m0 0v2h-3c0.66 0.33 1.32 0.66 2 1 0.0507 6.89 0.0858 13.8 0.11 20.7 0.0101 2.34 0.0237 4.68 0.041 7.03 0.0243 3.37 0.0356 6.74 0.0444 10.1 0.0103 1.05 0.0206 2.09 0.0313 3.17 2.27e-4 1.47 2.27e-4 1.47 4.58e-4 2.97 0.00444 0.859 0.00888 1.72 0.0135 2.6-0.241 2.46-0.241 2.46-2.24 7.46h-13c0.33-0.66 0.66-1.32 1-2-0.99-0.66-1.98-1.32-3-2v-2c-3.3-0.33-6.6-0.66-10-1v3h-3c-0.33-0.66-0.66-1.32-1-2-0.33 0.99-0.66 1.98-1 3-3.88-1.75-3.88-1.75-5-4 0.33-0.66 0.66-1.32 1-2-3.05-1.01-3.05-1.01-6 0-0.103-0.598-0.206-1.2-0.312-1.81-0.776-2.47-1.76-3.51-3.69-5.19 3.53-2.35 5.03-2.21 9.19-2.12 1.09 0.018 2.17 0.0361 3.29 0.0547 0.831 0.0232 1.66 0.0464 2.52 0.0703v-2c-0.908 0.206-1.82 0.413-2.75 0.625-3.25 0.375-3.25 0.375-7.25-1.62h10c-0.00524-0.893-0.0105-1.79-0.0159-2.71-0.017-3.32-0.0296-6.63-0.0391-9.95-0.00503-1.43-0.0118-2.87-0.0205-4.3-0.0121-2.06-0.0178-4.13-0.0222-6.19-0.00524-1.24-0.0105-2.48-0.0159-3.76 0.114-3.09 0.114-3.09 1.11-6.09 1.06-0.0297 1.06-0.0297 2.14-0.0601 3.2-0.0953 6.41-0.205 9.61-0.315 1.11-0.0309 2.22-0.0619 3.37-0.0938 1.07-0.0387 2.14-0.0773 3.24-0.117 1.48-0.0471 1.48-0.0471 2.98-0.0952 3.65-0.438 5.96-2.32 9.66-2.32z" fill="#B79153"/>
<path transform="translate(276,156)" d="m0 0v156c-0.66-0.33-1.32-0.66-2-1 0.00524-0.881 0.0105-1.76 0.0159-2.67 0.0172-3.32 0.0297-6.65 0.0391-9.97 0.00498-1.43 0.0118-2.86 0.0205-4.29 0.0124-2.07 0.0179-4.15 0.0222-6.22 0.00524-1.24 0.0105-2.48 0.0159-3.76-0.0388-3.1-0.298-6.14-0.614-9.23-0.631-6.55-0.626-13.1-0.598-19.6 0.00141-1.27 0.00283-2.54 0.00429-3.85 0.00461-3.34 0.0136-6.68 0.0247-10 0.0103-3.43 0.0148-6.85 0.0198-10.3 0.011-6.69 0.0277-13.4 0.0488-20.1h-3v6c-1.98 0.495-1.98 0.495-4 1-0.268-0.804-0.536-1.61-0.812-2.44-0.392-0.846-0.784-1.69-1.19-2.56-1.49-0.495-1.49-0.495-3-1v-2h-2c-0.33-2.64-0.66-5.28-1-8h-3v-6c-2.22 1.93-2.22 1.93-3 5-2-1-2-1-3-2-0.33 2.64-0.66 5.28-1 8h-1c-1.05-8.76-1.15-17.4-1.13-26.2 0.00543-2.34-1.44e-5 -4.69-0.00635-7.03 6.6e-4 -1.49 0.00194-2.99 0.00391-4.48-0.00304-1.05-0.00304-1.05-0.00613-2.12 0.0239-4.9 0.0239-4.9 1.14-7.13 3.84-1.2 7.81-1.89 11.8-2.69 1.1-0.238 2.2-0.476 3.33-0.721 1.06-0.22 2.12-0.44 3.22-0.666 0.973-0.202 1.95-0.404 2.95-0.612 2.75-0.314 2.75-0.314 7.75 0.686z" fill="#BE9757"/>
<path transform="translate(1440,372)" d="m0 0c2.94 2.5 2.94 2.5 5 5 0.473 0.436 0.946 0.871 1.43 1.32 6.84 7.33 8.88 17 8.57 26.7-0.635 8.42-4.76 14.3-10.9 19.8-7.69 5.49-15.8 7.11-25.1 6.19-9.39-2.17-16.6-6.98-22-15v-2h-2c-2.46-10.9-2.63-19.5 2-30 4.93-7.25 10.8-12.5 19.4-14.6 8.06-1.32 16.1-0.85 23.6 2.57zm-31.9 14.9c-4.33 6.37-4.87 12.6-4.12 20.1 1.01 3.07 1.71 4.71 4 7 0.464 0.491 0.928 0.982 1.41 1.49 4.39 4.16 9.23 5.79 15.2 5.95 5.61-0.255 9.19-1.25 13.3-5.31 5.28-5.8 6.34-9.52 6.29-17.3-0.213-3.56-0.977-6.46-2.17-9.81h-2c-0.0412-0.577-0.0825-1.15-0.125-1.75-1.33-3.42-3.78-4.45-6.88-6.25-9.11-3.04-18.4-1.3-24.9 5.88z" fill="#EDEDED"/>
<path transform="translate(1135,370)" d="m0 0c3.97-0.0749 7.93-0.129 11.9-0.165 2-0.0223 4-0.0604 6-0.0989 16.3-0.123 16.3-0.123 21.7 4.74 5.85 6.57 7.1 13.8 6.78 22.4-0.578 4.24-1.51 6.07-4.43 9.15-0.773 0.928-0.773 0.928-1.56 1.88-1.44 1.12-1.44 1.12-4.44 1.12 0.495 2.97 0.495 2.97 1 6h2c0.247 0.866 0.495 1.73 0.75 2.62 1.32 3.56 3.1 6.26 5.25 9.38 0.33 0.99 0.66 1.98 1 3-7.77 0.914-7.77 0.914-10.7-1.27-3.29-3.92-3.29-3.92-3.29-6.73h-2c-2.47-4.45-2.47-4.45-5-9h-14c-1.19 3.56-1.1 6.44-1.06 10.2 0.00902 1.27 0.018 2.54 0.0273 3.86 0.0116 0.976 0.0232 1.95 0.0352 2.96h-10c-1.47-2.94-1.22-5.65-1.32-8.93-0.0209-0.699-0.0418-1.4-0.0634-2.12-0.0663-2.28-0.125-4.55-0.183-6.83-0.0308-1.15-0.0308-1.15-0.0622-2.33-0.14-5.26-0.263-10.5-0.375-15.8-0.0248-1.15-0.0496-2.31-0.0752-3.5-0.0525-2.79-0.0883-5.58-0.112-8.38-0.013-0.787-0.0259-1.57-0.0393-2.39-0.0065-3.85 0.369-6.39 2.23-9.74zm11 10c-2.09 3.13-2.25 3.85-2.23 7.41 0.00193 0.843 0.00387 1.69 0.00586 2.55 0.0122 0.877 0.0245 1.75 0.0371 2.66 6.45e-4 0.884 0.00129 1.77 0.00195 2.68-0.345 4.18-0.345 4.18 1.19 7.7 2.93 0.154 5.82 0.232 8.75 0.25 1.22 0.0309 1.22 0.0309 2.46 0.0625 4.78 0.0311 7.9-0.224 11.8-3.31 1.98-2.3 2.98-3.89 3.03-6.96-0.371-3.63-0.914-6.99-3.03-10-4.88-3.25-10-3.17-15.8-3.25-1.69-0.0387-1.69-0.0387-3.42-0.0781-1.4 0.162-1.4 0.162-2.83 0.328z" fill="#EDEDED"/>
<path transform="translate(185,154)" d="m0 0c5.26 0.859 10.5 1.73 15.8 2.62 1.86 0.313 3.72 0.616 5.58 0.915 0.874 0.152 1.75 0.304 2.65 0.461 0.743 0.124 1.49 0.248 2.25 0.375 1.75 0.625 1.75 0.625 3.75 3.62 0.189 2.77 0.261 5.45 0.241 8.22 0.00171 0.848 0.00342 1.7 0.00518 2.57 0.0033 2.85-0.00772 5.7-0.0186 8.55-5.64e-4 2.04-2.48e-4 4.08 8.85e-4 6.12 5.75e-4 5.55-0.0112 11.1-0.0251 16.6-0.0125 5.79-0.0137 11.6-0.0161 17.4-0.00622 11-0.0226 22-0.0427 32.9-0.0223 12.5-0.0333 25-0.0434 37.5-0.0209 25.7-0.0561 51.4-0.101 77.1h-9c-1-4-1-4 0-6 0.0303-2.24-0.0664-4.47-0.16-6.71 0.178-2.55 0.887-4.1 2.16-6.29l1 4h3c-0.33-0.99-0.66-1.98-1-3 0.33-0.33 0.66-0.66 1-1-0.0649-2.25-0.203-4.5-0.375-6.75-0.0902-1.23-0.18-2.46-0.273-3.73-0.429-4.3-0.429-4.3-1.35-8.52-0.66-0.33-1.32-0.66-2-1-0.125-2.38-0.125-2.38 0-5 0.99-0.99 0.99-0.99 2-2 2.93-10.2 3.43-20.3 3.33-30.8-0.00307-1.46-0.00494-2.92-0.00568-4.38-0.00455-3.03-0.0188-6.05-0.0412-9.08-0.0284-3.86-0.0392-7.71-0.0437-11.6-0.00518-3.72-0.0197-7.44-0.0344-11.2-0.00188-0.695-0.00376-1.39-0.0057-2.11-0.0288-8.22-0.0798-16.3-1.7-24.4-0.479-2.4-0.824-4.76-1.12-7.19-0.0954-0.767-0.191-1.53-0.289-2.32-0.0859-1.99-0.0859-1.99 0.914-3.99h-2v3h-2c-0.0251-0.569-0.0501-1.14-0.0759-1.72-0.117-2.61-0.239-5.23-0.362-7.84-0.0393-0.895-0.0786-1.79-0.119-2.71-0.237-4.97-0.642-9.81-1.44-14.7-0.66 0.66-1.32 1.32-2 2-0.33-2.97-0.66-5.94-1-9-2.99-0.171-4.84-0.0671-7.62 1.12-0.784 0.289-1.57 0.577-2.38 0.875-0.99-0.66-1.98-1.32-3-2 0.66 1.32 1.32 2.64 2 4-0.99 0.99-1.98 1.98-3 3-0.33-0.33-0.66-0.66-1-1-0.66 1.32-1.32 2.64-2 4-0.883-4.55-1.13-8.85-1.13-13.5-9.57e-4 -0.695-0.00191-1.39-0.0029-2.11-6.77e-4 -1.46 0.00114-2.92 0.00534-4.37 0.00538-2.23 2.48e-5 -4.46-0.00635-6.69 6.6e-4 -1.42 0.00194-2.84 0.00391-4.26 0.00113-1.29 0.00226-2.57 0.00342-3.9 0.129-3.18 0.129-3.18 1.13-6.18z" fill="#BD9656"/>
<path transform="translate(566,370)" d="m0 0h42v10c-9.9 0.33-19.8 0.66-30 1-1.82 3.27-1.82 3.27-1 13 13.9 0.495 13.9 0.495 28 1-0.495 1.49-0.495 1.49-1 3 0.324 1.34 0.657 2.67 1 4l-1 2h-27v15c1.64 0.0606 3.28 0.121 4.97 0.184 2.18 0.0845 4.35 0.169 6.53 0.254 1.08 0.0393 2.16 0.0786 3.27 0.119 5.8 0.23 11.5 0.613 17.2 1.44l-1 2c0.282 2.34 0.613 4.68 1 7-5.8 0.0493-11.6 0.0857-17.4 0.11-1.97 0.0101-3.95 0.0237-5.92 0.041-2.83 0.0242-5.67 0.0356-8.5 0.0444-0.887 0.0103-1.77 0.0206-2.69 0.0313-2.16 3.98e-4 -4.32-0.104-6.48-0.227-2.73-2.73-2.31-4.31-2.41-8.13-0.0388-1.27-0.0777-2.54-0.118-3.85-0.0316-1.38-0.0627-2.76-0.0933-4.14-0.0372-1.4-0.0748-2.8-0.113-4.2-0.227-8.81-0.358-17.6-0.387-26.4-0.00701-1.5-0.00701-1.5-0.0142-3.02 0.00314-1.37 0.00314-1.37 0.00635-2.77 0.00113-0.792 0.00226-1.58 0.00342-2.4 0.129-2.05 0.129-2.05 1.13-5.05z" fill="#E7E8E8"/>
<path transform="translate(739,370)" d="m0 0h10v3c0.109 5.4 0.239 10.8 0.372 16.2 0.0434 1.79 0.085 3.58 0.125 5.37 0.0579 2.58 0.122 5.17 0.186 7.75 0.0167 0.796 0.0334 1.59 0.0506 2.41 0.144 5.7 0.144 5.7 1.27 11.3 1.75 1.29 1.75 1.29 4 2 0.722 0.371 1.44 0.743 2.19 1.12 5.49 1.71 10.1 1.75 15.2-0.875 3.81-3.35 4.48-5.1 4.87-10.2 0.0348-1.61 0.0595-3.22 0.0759-4.83 0.017-0.853 0.034-1.71 0.0515-2.58 0.0531-2.72 0.0934-5.44 0.132-8.16 0.044-2.72 0.0907-5.45 0.143-8.17 0.0319-1.69 0.0588-3.39 0.0802-5.08 0.058-3.3 0.164-6.03 1.21-9.18h10c-0.0195 6.41-0.0714 12.8-0.153 19.2-0.0231 2.18-0.0376 4.35-0.043 6.53-0.00933 3.14-0.0504 6.28-0.0974 9.41 0.0059 1.45 0.0059 1.45 0.0119 2.92-0.167 7.81-2.55 12.7-7.97 18.2-7.72 4.74-15.8 6.1-24.7 4-6.17-1.98-9.46-3.97-13.1-9.31-0.512-0.45-1.02-0.9-1.55-1.36-5.61-6.33-3.72-20.4-3.65-28.5 0.0185-2.25 0.0205-4.5 0.0203-6.75 0.0374-11 0.0374-11 1.19-14.4z" fill="#F7F7F7"/>
<path transform="translate(663 373)" d="m0 0c0.66 0.454 1.32 0.908 2 1.38-0.66 2.97-1.32 5.94-2 9-3.24-0.475-6.24-1.08-9.38-2.06-5.87-1.52-12.2-2.04-17.6 1.06-1.14 2.69-1.53 5.07-2 8 3.27 1.35 6.53 2.52 9.91 3.55 0.909 0.287 1.82 0.574 2.75 0.869 1.89 0.594 3.78 1.18 5.68 1.75 5.5 1.76 9.05 3.26 12.7 7.83 2.44 5 3.07 10.5 2 16-2.67 5.09-6.33 8.14-11.8 10-10.2 2.35-19.7 1.25-29.2-3-2.38-2.14-2.38-2.14-4-4 1.32-2.64 2.64-5.28 4-8 1.1 0.524 1.1 0.524 2.23 1.06 0.976 0.455 1.95 0.91 2.96 1.38 0.963 0.452 1.93 0.905 2.92 1.37 6.06 2.49 12 3.12 18.3 1.13 3.01-1.78 3.01-1.78 3.5-5.62 0.0412-1.09 0.0825-2.19 0.125-3.31-4.39-4.08-10.3-5.06-15.9-6.66-6.04-1.8-12.2-4.1-16.1-9.34-1.22-4.85-1.71-10.1 0.0625-14.9 3.37-5.44 7.6-8.6 13.6-10.6 8.49-1.82 17.7-1.02 25.3 3.12z" fill="#E9EAEA"/>
<path transform="translate(1065,370)" d="m0 0h9v3c0.0863 5.06 0.197 10.1 0.317 15.2 0.0382 1.67 0.0731 3.34 0.104 5.01 0.0461 2.42 0.104 4.85 0.164 7.27 0.0116 0.737 0.0231 1.47 0.035 2.23 0.141 5.04 0.853 9.5 2.38 14.3 2.35 1.56 2.35 1.56 5 2 1.48 0.495 1.48 0.495 3 1 4.25 0.414 7.9 0.454 11.9-1.19 2.91-2.48 4.83-4.85 5.42-8.75 0.134-2.33 0.175-4.65 0.185-6.98 0.0156-0.851 0.0312-1.7 0.0472-2.58 0.0474-2.71 0.0752-5.42 0.101-8.13 0.0365-2.72 0.0772-5.43 0.123-8.15 0.0272-1.69 0.0485-3.38 0.0635-5.07 0.0443-3.3 0.139-6.01 1.19-9.16h9v3c0.0192 1.36 0.0406 2.71 0.0635 4.07 0.0722 4.55 0.118 9.11 0.156 13.7 0.0201 1.96 0.0474 3.92 0.082 5.89 0.0488 2.84 0.0713 5.68 0.0889 8.52 0.0206 0.868 0.0413 1.74 0.0626 2.63 0.00249 6.84-1.77 11.9-6.09 17.3-6.37 5.35-12.6 6.43-20.8 6.23-7.15-0.71-12.5-3.19-17.5-8.25-1.75-2.56-1.75-2.56-3-5-0.351-0.624-0.702-1.25-1.06-1.89-1.02-2.29-1.18-3.79-1.18-6.28-0.00308-0.811-0.00615-1.62-0.00932-2.46 0.00719-0.867 0.0144-1.73 0.0218-2.63 6.87e-4 -1.35 6.87e-4 -1.35 0.00139-2.72 0.00302-1.89 0.0109-3.79 0.0233-5.68 0.0183-2.9 0.0205-5.8 0.0203-8.7 0.00492-1.84 0.0107-3.68 0.0176-5.52 0.00111-0.869 0.00223-1.74 0.00337-2.63 0.00638-0.808 0.0128-1.62 0.0193-2.45 0.00572-1.06 0.00572-1.06 0.0116-2.15 0.134-1.89 0.134-1.89 1.13-4.89z" fill="#F5F5F5"/>
<path transform="translate(1379 374)" d="m0 0c1.94 2.25 1.94 2.25 2.38 5.81-0.438 3.44-0.438 3.44-2.44 6.44-2.91-0.607-5.03-1.54-7.56-3.06-5.68-2.89-11.7-3.1-17.8-1.21-5.31 2.42-8.57 5.5-10.7 11-0.968 3.43-1.22 6.32-1.23 9.88-0.0168 1.11-0.0335 2.21-0.0508 3.35 0.566 4.71 2.79 6.49 6.18 9.65 6 4.47 11.9 5.16 19.2 4.38 3.72-1.42 6.4-2.97 9-6 1.88 0.562 1.88 0.562 4 2 1.25 3.62 1.25 3.62 2 7-6.02 5.71-12 8.08-20.3 8.44-8.7-0.281-17.1-2.84-23.4-8.91-1.65-1.99-2.43-4.1-3.26-6.52-0.99-0.33-1.98-0.66-3-1-3.16-5.71-4.1-12.6-3-19 4.01-11.8 8.75-19.2 20-25 10.2-4.08 20.7-2.59 30.1 2.75zm-49.1 22.2 1 2zm0 6 1 4z" fill="#E6E6E6"/>
<path transform="translate(124,337)" d="m0 0c1.66 0.199 1.66 0.199 3.36 0.402 13.7 1.51 27.3 1.97 41 2.17 1.48 0.0287 2.96 0.0574 4.44 0.0862 1.98 0.028 1.98 0.028 3.99 0.0566 3.22 0.287 3.22 0.287 6.22 2.29-2 2-2 2-5.48 2.2-1.38-0.0133-2.77-0.0372-4.15-0.0703-0.706-0.00902-1.41-0.018-2.14-0.0273-1.74-0.0236-3.49-0.0595-5.23-0.0977 0.0116 0.915 0.0232 1.83 0.0352 2.77 0.00902 1.19 0.018 2.38 0.0273 3.6 0.0116 1.18 0.0232 2.37 0.0352 3.59-0.0977 3.04-0.0977 3.04-1.1 5.04h2c-0.66 1.65-1.32 3.3-2 5h2v2c-11.7 5.85-30.4 3.22-43 3 0.33-0.99 0.66-1.98 1-3h-2c-0.0289-4.46-0.0468-8.92-0.0625-13.4-0.00838-1.27-0.0168-2.54-0.0254-3.85-0.00322-1.21-0.00645-2.42-0.00977-3.67-0.00524-1.12-0.0105-2.24-0.0159-3.4 0.114-2.71 0.114-2.71 1.11-4.71z" fill="#BD9756"/>
<path transform="translate(1017 370)" d="m0 0c1.25 0.00524 2.5 0.0105 3.79 0.0159 0.997 0.00212 0.997 0.00212 2.01 0.00429 2.13 0.00561 4.26 0.0182 6.39 0.0309 1.44 0.00501 2.88 0.00958 4.32 0.0137 3.54 0.011 7.08 0.0283 10.6 0.0488v3c0.0194 1.48 0.0408 2.97 0.0635 4.45 0.0721 5.01 0.118 10 0.156 15 0.0201 2.16 0.0474 4.33 0.082 6.49 0.0487 3.13 0.0712 6.25 0.0889 9.38 0.0206 0.961 0.0413 1.92 0.0626 2.91 0.00203 6.13-0.829 9.73-4.45 14.7-5.97 4.72-11.5 5.86-19 5-5.72-1.68-9.72-3.86-13-9 1.65-2.31 3.3-4.62 5-7 0.762 0.524 0.762 0.524 1.54 1.06 5.75 3.81 5.75 3.81 12.5 4.94 2.77-0.849 2.77-0.849 5-3 0.454-2.99 0.585-5.4 0.488-8.39-0.00707-0.817-0.0141-1.63-0.0214-2.48-0.028-2.61-0.0907-5.22-0.154-7.82-0.0251-1.77-0.0479-3.54-0.0684-5.31-0.0509-4.34-0.149-8.67-0.244-13-5.94-0.33-11.9-0.66-18-1-1.49-2.98-1.12-5.72-1-9 1-1 1-1 3.87-1.11z" fill="#EDEDED"/>
<path transform="translate(678,370)" d="m0 0h48c-0.33 0.99-0.66 1.98-1 3-0.0395 2.33-0.044 4.67 0 7-1.82 0.0909-1.82 0.0909-3.68 0.184-1.58 0.0844-3.17 0.169-4.75 0.254-0.802 0.0393-1.6 0.0786-2.43 0.119-3.88-0.151-3.88-0.151-7.13 1.44-0.122 1.5-0.178 3.01-0.205 4.52-0.0199 0.961-0.0399 1.92-0.0604 2.91-0.0251 1.57-0.0251 1.57-0.0506 3.17-0.0208 1.06-0.0416 2.13-0.063 3.22-0.0656 3.41-0.124 6.83-0.183 10.2-0.0432 2.31-0.0868 4.62-0.131 6.92-0.107 5.67-0.209 11.3-0.307 17h-9c-0.938-2.81-1.15-4.64-1.21-7.56-0.0199-0.921-0.0399-1.84-0.0604-2.79-0.0167-0.991-0.0334-1.98-0.0506-3-0.0208-1.02-0.0416-2.03-0.063-3.08-0.0654-3.25-0.124-6.5-0.183-9.75-0.0432-2.2-0.0868-4.4-0.131-6.61-0.107-5.4-0.208-10.8-0.307-16.2-5.94-0.33-11.9-0.66-18-1 0-8 0-8 1-10z" fill="#FDFDFD"/>
<path transform="translate(1270,3)" d="m0 0c18.9-0.625 18.9-0.625 27.8 4.62 5.77 6.09 8.54 12.9 8.4 21.3-0.433 5.91-2.52 10.5-6.15 15.1-1.48 0.495-1.48 0.495-3 1-0.291 0.616-0.583 1.23-0.883 1.87-1.49 2.84-3.23 3.69-5.99 5.26-0.864 0.498-1.73 0.995-2.62 1.51-1.55 0.844-3.11 1.66-4.7 2.42-1.98 0.924-1.98 0.924-3.8 2.95v-5c-1.32-0.66-2.64-1.32-4-2h3v-2c0.639-0.474 1.28-0.949 1.94-1.44 2.35-1.47 2.35-1.47 3.06-4.56 0.99-0.495 0.99-0.495 2-1 3.94-9.93 5.51-17.8 1.29-27.8-1.82-3.08-3.94-4.11-7.29-5.18v-2c-5.94 0.495-5.94 0.495-12 1 2-3 2-3 5-4-0.66-0.66-1.32-1.32-2-2z" fill="#FDFDFD"/>
<path transform="translate(882,370)" d="m0 0h10v3c0.0328 1.79 0.0692 3.57 0.108 5.36 0.129 6.09 0.253 12.2 0.375 18.3 0.0536 2.63 0.109 5.27 0.166 7.9 0.0817 3.79 0.157 7.58 0.231 11.4 0.027 1.18 0.0541 2.37 0.0819 3.59 0.0201 1.09 0.0402 2.18 0.0609 3.31 0.02 0.964 0.04 1.93 0.0606 2.92-0.0823 2.31-0.0823 2.31-1.08 4.31-1.46 0.054-2.92 0.0928-4.38 0.125-0.812 0.0232-1.62 0.0464-2.46 0.0703-2.16-0.195-2.16-0.195-4.16-2.2-0.247-2.31-0.247-2.31-0.243-5.23-0.00308-1.09-0.00615-2.18-0.00932-3.31 0.00719-1.18 0.0144-2.37 0.0218-3.59 4.58e-4 -1.21 9.16e-4 -2.42 0.00139-3.67 0.00303-2.56 0.0109-5.13 0.0233-7.69 0.0182-3.93 0.0205-7.87 0.0203-11.8 0.00492-2.49 0.0107-4.98 0.0176-7.46 0.00111-1.18 0.00223-2.36 0.00337-3.58 0.00638-1.09 0.0128-2.19 0.0193-3.32 0.00381-0.964 0.00762-1.93 0.0116-2.92 0.134-2.44 0.134-2.44 1.13-5.44z" fill="#FEFEFE"/>
<path transform="translate(1303,370)" d="m0 0h10v60h-10c-1.01-3.03-1.13-5.08-1.13-8.25-0.00315-1.07-0.0063-2.14-0.00955-3.25 0.00304-1.73 0.00304-1.73 0.00613-3.5-9.57e-4 -1.19-0.00191-2.37-0.0029-3.6-6.81e-4 -2.51 0.00117-5.02 0.00534-7.54 0.00535-3.85 5.2e-5 -7.7-0.00635-11.6 6.61e-4 -2.44 0.00194-4.88 0.00391-7.31-0.00202-1.16-0.00405-2.31-0.00613-3.5 0.00315-1.07 0.0063-2.14 0.00955-3.25 7.96e-4 -0.944 0.00159-1.89 0.00241-2.86 0.127-2.39 0.127-2.39 1.13-5.39z" fill="#FEFEFE"/>
<path transform="translate(1199,370)" d="m0 0h10v60h-10c-1.01-3.03-1.13-5.08-1.13-8.25-0.00315-1.07-0.0063-2.14-0.00955-3.25 0.00304-1.73 0.00304-1.73 0.00613-3.5-9.57e-4 -1.19-0.00191-2.37-0.0029-3.6-6.81e-4 -2.51 0.00117-5.02 0.00534-7.54 0.00535-3.85 5.2e-5 -7.7-0.00635-11.6 6.61e-4 -2.44 0.00194-4.88 0.00391-7.31-0.00202-1.16-0.00405-2.31-0.00613-3.5 0.00315-1.07 0.0063-2.14 0.00955-3.25 7.96e-4 -0.944 0.00159-1.89 0.00241-2.86 0.127-2.39 0.127-2.39 1.13-5.39z" fill="#F5F5F5"/>
<path transform="translate(269,37)" d="m0 0c0.99 0.33 1.98 0.66 3 1v2c-2.64 0.33-5.28 0.66-8 1v3c1.42-0.526 1.42-0.526 2.88-1.06 4.77-1.4 9.28-0.659 14.1 0.0625v3h-3c0.99 0.66 1.98 1.32 3 2 0.688 3.12 0.688 3.12 1 6-3.13 1.04-3.99 0.934-7 0v2h10c-3.11 2.07-4.71 2.45-8.33 3-1.57 0.248-1.57 0.248-3.17 0.5-1.09 0.165-2.18 0.33-3.31 0.5-9.24 1.4-9.24 1.4-18.2 4-1.99 0.42-3.99 0.796-6 1.12-0.99 0.168-1.98 0.335-3 0.508-3.03 0.371-5.95 0.431-9 0.367 0.33-0.66 0.66-1.32 1-2h2v-2c0.969-0.474 1.94-0.949 2.94-1.44 2.87-1.26 2.87-1.26 4.06-2.56 2.02-0.234 4.04-0.413 6.06-0.562 1.66-0.126 1.66-0.126 3.35-0.254 0.855-0.0606 1.71-0.121 2.59-0.184v-4c-0.99-0.33-1.98-0.66-3-1h3c0.144-0.763 0.289-1.53 0.438-2.31 0.562-2.69 0.562-2.69 1.56-5.69-0.66-0.66-1.32-1.32-2-2h2v-3c0.94-0.0909 0.94-0.0909 1.9-0.184 0.817-0.0838 1.63-0.168 2.48-0.254 0.812-0.0812 1.62-0.162 2.46-0.246 2.21-0.207 2.21-0.207 4.16-1.32z" fill="#BD9656"/>
<path transform="translate(338,337)" d="m0 0v32h-23c4.16-4.16 8.37-4.91 14-6 0.193-0.771 0.387-1.54 0.586-2.34 0.26-1 0.521-2.01 0.789-3.04 0.255-0.998 0.51-2 0.773-3.02 0.852-2.6 0.852-2.6 2.85-4.6v-5h-12c-0.33 2.64-0.66 5.28-1 8-2.31 0.33-4.62 0.66-7 1v-5c-4.29-0.33-8.58-0.66-13-1 0.33-0.66 0.66-1.32 1-2h13v-2h-14c-0.33-1.32-0.66-2.64-1-4 0.694-0.0198 1.39-0.0396 2.1-0.0601 3.22-0.0966 6.43-0.206 9.65-0.315 1.64-0.0464 1.64-0.0464 3.31-0.0938 7.65-0.272 15.4-2.53 22.9-2.53z" fill="#BE9757"/>
<path transform="translate(214,220)" d="m0 0h1v149h-9c-1-4-1-4 0-6 0.0303-2.24-0.0664-4.47-0.16-6.71 0.178-2.55 0.887-4.1 2.16-6.29 0.33 1.32 0.66 2.64 1 4h3c-0.33-0.99-0.66-1.98-1-3 0.33-0.33 0.66-0.66 1-1-0.0649-2.25-0.203-4.5-0.375-6.75-0.135-1.85-0.135-1.85-0.273-3.73-0.429-4.3-0.429-4.3-1.35-8.52-0.66-0.33-1.32-0.66-2-1-0.125-2.38-0.125-2.38 0-5 0.99-0.99 0.99-0.99 2-2 3.16-10.7 3.39-21.3 3.26-32.4-0.00817-1.63-0.0148-3.26-0.0201-4.89-0.0169-4.25-0.0511-8.49-0.0901-12.7-0.0597-6.8-0.0935-13.6-0.126-20.4-0.0137-2.35-0.0353-4.69-0.0583-7.04-0.0666-8.55 0.204-17 1.04-25.5z" fill="#BE9757"/>
<path transform="translate(1319,50)" d="m0 0h21v4c-0.928 0.681-1.86 1.36-2.81 2.06-3.96 3-4.47 6.61-5.54 11.3-0.775 3.16-2.15 5.77-3.65 8.64-0.766 2.32-1.39 4.64-2 7h-2c-0.289 1.24-0.578 2.47-0.875 3.75-0.738 2.97-1.57 5.58-3.12 8.25h-5c0.977-7.62 3.59-14.2 7-21 1.96-4.95 3.74-9.61 3-15-1.19-2.82-1.19-2.82-3-5-0.99-0.33-1.98-0.66-3-1v-3zm4 30 1 2z" fill="#FAFAFB"/>
<path transform="translate(343,79)" d="m0 0v2c-0.99 0.495-0.99 0.495-2 1-0.952 3.49-1.18 6.92-1.32 10.5-0.0419 1.02-0.0838 2.04-0.127 3.1-0.0393 1.06-0.0786 2.11-0.119 3.2-0.0432 1.07-0.0864 2.15-0.131 3.26-0.106 2.64-0.208 5.29-0.307 7.93-0.99-0.33-1.98-0.66-3-1v-8c-1.32-0.33-2.64-0.66-4-1v-2h3c0.33-0.66 0.66-1.32 1-2h-4v-3h-5v-5c-0.603 0.0116-1.21 0.0232-1.83 0.0352-1.2 0.0135-1.2 0.0135-2.42 0.0273-1.18 0.0174-1.18 0.0174-2.39 0.0352-2.27-0.0938-4.19-0.465-6.36-1.1 0.33-1.32 0.66-2.64 1-4 3.16-0.68 6.33-1.34 9.5-2 0.887-0.191 1.77-0.382 2.69-0.578 5.39-1.11 10.3-1.63 15.8-1.42z" fill="#B38F52"/>
<path transform="translate(337,155)" d="m0 0h1c0.00239 0.722 0.00478 1.44 0.00724 2.19 0.0592 17.6 0.135 35.2 0.228 52.8 0.0449 8.51 0.0843 17 0.111 25.5 0.023 7.42 0.0565 14.8 0.102 22.3 0.0238 3.93 0.0426 7.85 0.0489 11.8 0.00609 3.7 0.0262 7.41 0.0567 11.1 0.0128 1.99 0.0112 3.98 9e-3 5.97 0.0793 7.65 1.1 14.1 3.44 21.4h-13v-15h3c0.33 3.63 0.66 7.26 1 11h2c-0.0116-0.678-0.0232-1.36-0.0352-2.05-0.0135-1.4-0.0135-1.4-0.0273-2.82-0.0116-0.905-0.0232-1.81-0.0352-2.74 0.0777-2.69 0.292-5.24 0.6-7.91 0.559-5.49 0.608-10.9 0.56-16.4-0.00862-2.2-0.0171-4.4-0.0254-6.6-0.0062-1.16-0.0124-2.32-0.0188-3.52-0.126-25 0.104-50 0.482-75 0.012-0.801 0.024-1.6 0.0364-2.43 0.148-9.84 0.302-19.7 0.464-29.5z" fill="#BE9757"/>
<path transform="translate(276,156)" d="m0 0v18c-1.98-0.33-3.96-0.66-6-1 0.33-0.99 0.66-1.98 1-3h2v-2c-0.866 0.0206-1.73 0.0412-2.62 0.0625-3.24-0.06-6.19-0.497-9.38-1.06h-3v-3c-0.99 0.33-1.98 0.66-3 1-0.99-0.33-1.98-0.66-3-1v-2c-1.65 0.33-3.3 0.66-5 1v-3c3.89-0.87 7.79-1.72 11.7-2.56 1.1-0.247 2.21-0.494 3.34-0.748 1.07-0.229 2.13-0.458 3.23-0.693 0.979-0.215 1.96-0.429 2.97-0.651 2.77-0.345 2.77-0.345 7.77 0.655z" fill="#B39052"/>
<path transform="translate(424,78)" d="m0 0h3v2c0.66-0.66 1.32-1.32 2-2h3v2h5c0.33 0.66 0.66 1.32 1 2-0.94-0.0174-0.94-0.0174-1.9-0.0352-1.23-0.0135-1.23-0.0135-2.48-0.0273-1.22-0.0174-1.22-0.0174-2.46-0.0352-2.21-0.047-2.21-0.047-4.16 1.1v2c5.94-0.495 5.94-0.495 12-1v4c-0.71 0.205-1.42 0.41-2.15 0.621-0.919 0.269-1.84 0.539-2.79 0.816-1.37 0.4-1.37 0.4-2.78 0.809-2.23 0.544-2.23 0.544-3.29 1.75-2.29 0.152-4.58 0.222-6.88 0.25-1.88 0.0387-1.88 0.0387-3.8 0.0781-3.32-0.328-3.32-0.328-5.25-1.62-1.79-2.84-1.37-5.46-1.07-8.71 2-2 2-2 4.6-2.2 0.998 0.0232 2 0.0464 3.02 0.0703 1.5 0.0271 1.5 0.0271 3.04 0.0547 0.771 0.0232 1.54 0.0464 2.34 0.0703v-2z" fill="#BB9454"/>
<path transform="translate(1,120)" d="m0 0c1.36 0.476 1.36 0.476 2.75 0.961 5.3 1.52 10.7 1.5 16.2 1.66 1.07 0.0387 2.13 0.0773 3.23 0.117 2.61 0.0937 5.22 0.179 7.83 0.258-0.33 0.66-0.66 1.32-1 2-0.0712 2.37-0.0841 4.75-0.0625 7.12 0.00902 1.28 0.018 2.56 0.0273 3.88 0.0116 0.987 0.0232 1.97 0.0352 2.99h-1v-9l-4.81-0.438c-0.994-0.0915-1.99-0.183-3.01-0.277-2.11-0.189-4.21-0.369-6.32-0.539-0.984-0.0812-1.97-0.162-2.98-0.246-0.91-0.0722-1.82-0.144-2.76-0.219-2.12-0.281-2.12-0.281-3.12-1.28-0.049 0.638-0.098 1.28-0.148 1.93-0.0748 0.826-0.15 1.65-0.227 2.5-0.0696 0.824-0.139 1.65-0.211 2.5-0.137 0.682-0.273 1.36-0.414 2.07-0.66 0.33-1.32 0.66-2 1-0.186-1.52-0.186-1.52-0.375-3.06-0.536-3.95-0.536-3.95-1.75-7.69-0.875-3.25-0.875-3.25 0.125-6.25z" fill="#A5844B"/>
<path transform="translate(153,243)" d="m0 0h1v65h-8c-1.13-3.5-0.957-6.48-0.625-10.1 0.0902-1.05 0.18-2.11 0.273-3.2 0.352-2.68 0.352-2.68 1.35-4.68 0.66 0.33 1.32 0.66 2 1-0.33 4.29-0.66 8.58-1 13h3c-0.0116-1-0.0232-2-0.0352-3.04-0.00939-1.34-0.0185-2.68-0.0273-4.03-0.0116-1.31-0.0232-2.62-0.0352-3.97 0.0977-3.96 0.0977-3.96 0.602-7.1 0.906-7.06 0.533-14.2 0.457-21.3-0.0469-7.26 0.211-14.4 1.04-21.6z" fill="#BE9757"/>
<path transform="translate(419,1)" d="m0 0c11.6 0.747 20.8 4.75 29 13v3h-3v-2c-1.26-0.144-2.52-0.289-3.81-0.438-6.35-0.729-6.35-0.729-8.19-2.56-0.99 0.495-0.99 0.495-2 1v-3h-4c-0.33-0.66-0.66-1.32-1-2-2.39-1.74-2.39-1.74-5-3-0.99 0.495-0.99 0.495-2 1v-2h-8v-1h8v-2z" fill="#BF9957"/>
<path transform="translate(1329,61)" d="m0 0h1c0.643 8.08-1.11 14.5-4 22h-2c-0.289 1.24-0.578 2.47-0.875 3.75-0.738 2.97-1.57 5.58-3.12 8.25h-5c0.973-7.59 3.54-14.2 7-21 0.7-1.99 1.38-3.99 2-6h3c0.66-2.31 1.32-4.62 2-7zm-6 19 1 2z" fill="#F0F1F3"/>
<path transform="translate(61,382)" d="m0 0h3c0.186 1.7 0.186 1.7 0.375 3.44 0.309 1.76 0.309 1.76 0.625 3.56 0.66 0.33 1.32 0.66 2 1v2h7c-1.81 1.06-1.81 1.06-4 2-0.99-0.33-1.98-0.66-3-1v2h6c-0.25 2.31-0.25 2.31-1 5-1.31 1.03-2.64 2.04-4 3v3h-3v3c-0.99-0.33-1.98-0.66-3-1-1.3-2.61-1.11-4.53-1.1-7.45 0.00322-1.08 0.00645-2.15 0.00977-3.26 0.00838-1.13 0.0168-2.26 0.0254-3.42 0.00451-1.14 0.00902-2.27 0.0137-3.44 0.0118-2.81 0.0283-5.62 0.0488-8.43z" fill="#BB9454"/>
<path transform="translate(1215 353)" d="m0 0c1.1 0.00902 2.19 0.018 3.32 0.0273 0.843 0.0116 1.69 0.0232 2.55 0.0352-0.33 0.99-0.66 1.98-1 3-1.33 0.333-2.67 0.667-4 1-0.33 0.99-0.66 1.98-1 3-3 3.15-6.16 5.72-10.5 6.39-2.19-0.0104-4.3-0.115-6.47-0.387 1.43-3.18 3.19-5.58 5.5-8.19 0.913-1.04 0.913-1.04 1.84-2.11 3.07-3.17 5.51-2.82 9.78-2.77z" fill="#B9BABA"/>
<path transform="translate(197,157)" d="m0 0c12.7 1.18 12.7 1.18 16 2 2.23 3.35 2.25 4.4 2.23 8.3-1.51e-4 1.08-3.02e-4 2.16-4.58e-4 3.28-0.0103 1.17-0.0206 2.33-0.0313 3.53-0.00283 1.19-0.00566 2.39-0.00858 3.62-0.0112 3.82-0.0363 7.64-0.0617 11.5-0.01 2.59-0.0192 5.18-0.0273 7.76-0.0221 6.35-0.0556 12.7-0.0977 19h-1c-0.0103-0.597-0.0206-1.19-0.0312-1.81-0.108-6.2-0.223-12.4-0.341-18.6-0.0434-2.31-0.0851-4.63-0.125-6.94-0.0576-3.32-0.121-6.64-0.186-9.96-0.0167-1.04-0.0334-2.08-0.0506-3.15-0.0199-0.961-0.0399-1.92-0.0604-2.91-0.0233-1.27-0.0233-1.27-0.0471-2.57-0.0325-2.13-0.0325-2.13-1.16-4.06-1.99-0.693-3.99-1.36-6-2-0.99-0.66-1.98-1.32-3-2-1.99-0.702-3.99-1.37-6-2v-3z" fill="#AE8B4F"/>
<path transform="translate(120,79)" d="m0 0c7.87 0.425 15.4 1.02 23 3v1c-1.65 0.33-3.3 0.66-5 1v2c-0.603-0.00902-1.21-0.018-1.83-0.0273-2.56 0.0949-4.72 0.284-7.17 1.03-2.04 2.23-2.81 4.16-4 7-0.66-0.33-1.32-0.66-2-1-0.598-2.14-0.598-2.14-1.06-4.81-0.553-3.1-1.14-6.14-1.94-9.19z" fill="#A5844B"/>
<path transform="translate(678,370)" d="m0 0h48v2c-8.69 1.11-17.3 1.15-26 1.13-2.5-0.00542-4.99 3.17e-6 -7.49 0.00635-1.59-6.6e-4 -3.18-0.00194-4.77-0.00391-0.746 0.00202-1.49 0.00405-2.26 0.00613-5.23-0.0239-5.23-0.0239-7.46-1.14v-2z" fill="#898A8A"/>
<path transform="translate(461,122)" d="m0 0v13c-0.99-0.66-1.98-1.32-3-2v-4c-1.05 0.227-2.1 0.454-3.19 0.688-4.22 0.346-5.56-0.104-8.81-2.69-0.33-0.66-0.66-1.32-1-2-3.28-0.47-3.28-0.47-7.06-0.625-1.94-0.112-1.94-0.112-3.91-0.227-1.5-0.0735-1.5-0.0735-3.03-0.148v-1c0.681-0.0251 1.36-0.0501 2.06-0.0759 3.08-0.116 6.17-0.239 9.25-0.362 1.07-0.0393 2.14-0.0786 3.25-0.119 1.03-0.0419 2.06-0.0838 3.12-0.127 0.948-0.0367 1.9-0.0733 2.87-0.111 7.7-0.644 7.7-0.644 9.45-0.205z" fill="#997B46"/>
<path transform="translate(339,334)" d="m0 0v2c-7.92 4.55-16.2 4.14-25.1 4.1-1.03-0.00141-2.06-0.00283-3.13-0.00429-3.27-0.00556-6.54-0.0181-9.81-0.0309-2.23-0.00502-4.46-0.00958-6.68-0.0137-5.44-0.011-10.9-0.0277-16.3-0.0488v-2c0.581-0.00809 1.16-0.0162 1.76-0.0245 6.08-0.0865 12.2-0.186 18.3-0.293 2.27-0.0381 4.53-0.073 6.8-0.104 3.27-0.046 6.54-0.104 9.81-0.164 1-0.0116 2.01-0.0231 3.04-0.035 7.24-0.15 14.6-3.38 21.3-3.38z"/>
<path transform="translate(124,334)" d="m0 0c0.846 0.309 1.69 0.619 2.56 0.938 7.04 2.18 14.1 2.26 21.4 2.38 1.03 0.0208 2.07 0.0416 3.13 0.063 3.28 0.0651 6.56 0.124 9.84 0.183 2.23 0.0432 4.46 0.0868 6.7 0.131 5.45 0.107 10.9 0.209 16.4 0.307-0.33 0.66-0.66 1.32-1 2-5.14 0.0251-10.3 0.043-15.4 0.0549-1.74 0.00497-3.48 0.0117-5.22 0.0205-29.7 0.146-29.7 0.146-38.4-3.08v-3z"/>
<path transform="translate(207,350)" d="m0 0 2 4h3c0.33-1.32 0.66-2.64 1-4h1c0.214 5.87-0.113 11.4-2 17-0.66 0.66-1.32 1.32-2 2h-4c-1.12-3.75-1.12-3.75 0-6 0.0693-2.24-0.00248-4.47-0.0625-6.71 0.0615-2.25 0.433-4.13 1.06-6.29z" fill="#BD9656"/>
<path transform="translate(307,85)" d="m0 0v2h3c-0.33 1.32-0.66 2.64-1 4h-3c-1.61 0.495-1.61 0.495-3.25 1-3.76 1-6.88 1.16-10.8 1v-2h-5c0.99-0.33 1.98-0.66 3-1v-2c2.46-0.502 4.92-1 7.38-1.5 1.05-0.215 1.05-0.215 2.12-0.434 5.28-1.07 5.28-1.07 7.51-1.07z" fill="#9D7E48"/>
<path transform="translate(837,186)" d="m0 0h41c0.495 0.99 0.495 0.99 1 2h-40v3c0.99 0.33 1.98 0.66 3 1-1.65 0.33-3.3 0.66-5 1v-7z" fill="#F7F8F8"/>
<path transform="translate(93,120)" d="m0 0c-0.33 0.99-0.66 1.98-1 3 0.144 0.557 0.289 1.11 0.438 1.69 0.84 3.45 0.622 6.76 0.562 10.3-0.99-0.33-1.98-0.66-3-1-0.33-1.98-0.66-3.96-1-6-2.64-0.66-5.28-1.32-8-2v-1c-5.94-0.33-11.9-0.66-18-1v-1c0.64-0.0198 1.28-0.0396 1.94-0.0601 2.92-0.0956 5.83-0.205 8.75-0.315 1.01-0.0309 2.01-0.0619 3.05-0.0938 1.46-0.058 1.46-0.058 2.96-0.117 0.895-0.0314 1.79-0.0628 2.71-0.0952 3.82-0.471 6.71-2.32 10.6-2.32z" fill="#836A3C"/>
<path transform="translate(1141 371)" d="m0 0c0.983 0.00967 1.97 0.0193 2.98 0.0293 1.02 0.0251 2.05 0.0503 3.1 0.0762 1.04 0.0135 2.07 0.0271 3.14 0.041 2.56 0.0354 5.12 0.0847 7.67 0.146v2c-0.946 0.0376-0.946 0.0376-1.91 0.0759-2.84 0.116-5.68 0.238-8.53 0.362-1.49 0.059-1.49 0.059-3.01 0.119-1.42 0.0628-1.42 0.0628-2.86 0.127-1.31 0.055-1.31 0.055-2.65 0.111-2.03-0.0129-2.03-0.0129-3.04 1.21-0.156 1.41-0.251 2.83-0.316 4.25-0.0419 0.854-0.0838 1.71-0.127 2.59-0.059 1.35-0.059 1.35-0.119 2.72-0.0432 0.902-0.0864 1.8-0.131 2.73-0.106 2.23-0.208 4.47-0.307 6.71h-2c-0.0871-3.27-0.14-6.54-0.188-9.81-0.0251-0.929-0.0503-1.86-0.0762-2.81-0.00967-0.893-0.0193-1.79-0.0293-2.71-0.0157-0.822-0.0314-1.64-0.0476-2.49 0.341-2.18 0.341-2.18 1.54-3.95 2.42-1.65 4-1.57 6.91-1.52z" fill="#FCFDFD"/>
<path transform="translate(400,368)" d="m0 0v22c-2.57-3.85-2.55-6.43-3-11-1.32-0.33-2.64-0.66-4-1h5c-0.33-1.65-0.66-3.3-1-5-3.63-0.33-7.26-0.66-11-1v-1h7v-2c2.49-0.687 4.38-1 7-1z" fill="#BF9957"/>
<path transform="translate(401,71)" d="m0 0h1c0.683 5.38 1 10.6 1 16 0.186 1.11 0.371 2.23 0.562 3.38 0.144 0.866 0.289 1.73 0.438 2.62-1 1-1 1-3.56 1.06-0.804-0.0206-1.61-0.0413-2.44-0.0625-0.625-1.75-0.625-1.75-1-4 0.299-0.547 0.598-1.09 0.906-1.66 1.52-3.25 1.81-6.57 2.22-10.1 0.0864-0.697 0.173-1.39 0.262-2.11 0.211-1.71 0.413-3.42 0.613-5.14z" fill="#BF9957"/>
<path transform="translate(1234 371)" d="m0 0c1.49 0.0157 1.49 0.0157 3.02 0.0317 1.61 0.00967 1.61 0.00967 3.26 0.0195 1.13 0.0168 2.26 0.0335 3.42 0.0508 1.7 0.0135 1.7 0.0135 3.44 0.0273 2.81 0.0236 5.62 0.0566 8.43 0.0977v2c-7.59 0.33-15.2 0.66-23 1-0.33 2.31-0.66 4.62-1 7h-2c-0.195-6.05-0.195-6.05 0-8 2-2 2-2 4.43-2.23z" fill="#FCFDFD"/>
<path transform="translate(266,260)" d="m0 0h4c0.33 6.27 0.66 12.5 1 19h-2c-0.33-2.97-0.66-5.94-1-9-0.99-0.33-1.98-0.66-3-1 0.33-2.97 0.66-5.94 1-9z" fill="#BD9656"/>
<path transform="translate(299,341)" d="m0 0v1c-2.4 0.337-4.79 0.67-7.19 1-0.674 0.0954-1.35 0.191-2.04 0.289-9.15 1.25-9.15 1.25-13.8-0.289v-2c6.23-3.11 16.3-1.06 23 0z" fill="#BE9757"/>
<path transform="translate(1163,186)" d="m0 0c4.46-0.0578 8.92-0.0935 13.4-0.125 1.91-0.0251 1.91-0.0251 3.85-0.0508 1.21-0.00645 2.42-0.0129 3.67-0.0195 1.12-0.0105 2.24-0.0209 3.4-0.0317 2.71 0.227 2.71 0.227 4.71 2.23-9.57 0.33-19.1 0.66-29 1v-3z" fill="#F3F4F4"/>
<path transform="translate(1295,113)" d="m0 0c0.66 0.33 1.32 0.66 2 1 1.48 6.13 1.48 6.13-0.0625 8.94-2.7 1.48-4.91 1.26-7.94 1.06 0.66-0.99 1.32-1.98 2-3-0.308-2.15-0.308-2.15-1-4 1.65-1.32 3.3-2.64 5-4z" fill="#F5F6F7"/>
<path transform="translate(268,221)" d="m0 0h1v26h-3v-14h2v-7c-0.66-0.33-1.32-0.66-2-1 0.66-1.32 1.32-2.64 2-4z" fill="#BE9757"/>
<path transform="translate(810,371)" d="m0 0h26v2c-1.12 0.0376-1.12 0.0376-2.26 0.0759-3.37 0.116-6.74 0.239-10.1 0.362-1.18 0.0393-2.35 0.0786-3.56 0.119-1.12 0.0419-2.24 0.0838-3.4 0.127-1.56 0.055-1.56 0.055-3.14 0.111-2.52 0.047-2.52 0.047-4.52 1.21 0.33-1.32 0.66-2.64 1-4z" fill="#FCFDFD"/>
<path transform="translate(62,365)" d="m0 0c0.898 0.307 1.8 0.614 2.72 0.93 5.46 1.56 11.1 1.79 16.7 2.2 1.11 0.0864 2.23 0.173 3.37 0.262 2.73 0.211 5.46 0.415 8.19 0.613-0.33 0.66-0.66 1.32-1 2-3.9-0.11-7.79-0.241-11.7-0.375-1.1-0.0309-2.21-0.0619-3.34-0.0938-1.07-0.0387-2.13-0.0773-3.23-0.117-0.979-0.0314-1.96-0.0628-2.97-0.0952-2.95-0.34-5.14-0.933-7.77-2.32-0.33-0.99-0.66-1.98-1-3z"/>
<path transform="translate(1323,82)" d="m0 0c1.24 3.71 0.568 4.68-0.938 8.19-0.38 0.901-0.761 1.8-1.15 2.73-0.3 0.687-0.601 1.37-0.91 2.08h-5c0.507-3.72 1.12-6.73 3-10 0.99 0.66 1.98 1.32 3 2 0.66-1.65 1.32-3.3 2-5z" fill="#F4F5F6"/>
<path transform="translate(1535,300)" d="m0 0c0.75 0.217 1.5 0.433 2.27 0.656 9.9 2.69 17.9 3.27 27.7 0.344-3.11 3.8-6.71 4.73-11.5 5.3-7.33 0.373-12.3-1.52-18.5-5.3v-1z"/>
<path transform="translate(1270,3)" d="m0 0c1.26-0.0412 2.52-0.0825 3.81-0.125 0.708-0.0232 1.42-0.0464 2.14-0.0703 3.69 0.353 5.5 2.65 8.04 5.2-8.41 0.495-8.41 0.495-17 1 2-3 2-3 5-4-0.66-0.66-1.32-1.32-2-2z" fill="#F8F9FA"/>
<path transform="translate(626,415)" d="m0 0c0.736 0.349 1.47 0.699 2.23 1.06 1.46 0.683 1.46 0.683 2.96 1.38 0.963 0.452 1.93 0.905 2.92 1.37 6.52 2.68 13 2.85 19.9 1.19-1.28 2.57-2.37 2.95-5 4-8.46-0.139-16.1-3.18-24-6 0.33-0.99 0.66-1.98 1-3z" fill="#000101"/>
<path transform="translate(97,34)" d="m0 0c1.79-0.0539 3.58-0.0928 5.38-0.125 0.998-0.0232 2-0.0464 3.02-0.0703 2.6 0.195 2.6 0.195 4.6 2.2-2 2-2 2-4.6 2.2-0.998-0.0232-2-0.0464-3.02-0.0703-1.5-0.0271-1.5-0.0271-3.04-0.0547-0.771-0.0232-1.54-0.0464-2.34-0.0703v-4z" fill="#BE9757"/>
<path transform="translate(143,185)" d="m0 0h3c1.99 4.97 2.25 9.12 2.12 14.4-0.00902 0.736-0.018 1.47-0.0273 2.23-0.0234 1.8-0.0592 3.6-0.0977 5.39-1.97-3.33-2.3-6.04-2.5-9.88-0.293-4.35-0.806-8.06-2.5-12.1z" fill="#BE9757"/>
<path transform="translate(1254,63)" d="m0 0h3c0.33 2.31 0.66 4.62 1 7-1.32 0.33-2.64 0.66-4 1v-2c-1.32 0.33-2.64 0.66-4 1-0.66-0.99-1.32-1.98-2-3 1.98-0.66 3.96-1.32 6-2v-2z" fill="#F4F5F6"/>
<path transform="translate(1337,123)" d="m0 0c3.75 0.506 5.51 1.16 8 4 0.66 0.33 1.32 0.66 2 1v3c-1.46-0.256-2.92-0.53-4.38-0.812-0.812-0.151-1.62-0.302-2.46-0.457-2.16-0.73-2.16-0.73-4.16-3.73 0.66-0.33 1.32-0.66 2-1-0.33-0.66-0.66-1.32-1-2z" fill="#C6C8C8"/>
<path transform="translate(268,283)" d="m0 0h2c0.814 2.85 1.12 5.37 1.1 8.33-0.00483 1.2-0.00483 1.2-0.00977 2.42-0.00838 0.825-0.0168 1.65-0.0254 2.5-0.00451 0.84-0.00902 1.68-0.0137 2.55-0.0117 2.07-0.0297 4.14-0.0488 6.2h-1c-2.3-14.6-2.3-14.6-2-22z" fill="#BE9757"/>
<path transform="translate(214,350)" d="m0 0h1v19h-5c0.205-0.701 0.41-1.4 0.621-2.12 1.6-5.64 2.83-11 3.38-16.9z" fill="#C09A58"/>
<path transform="translate(384,8)" d="m0 0c-0.33 1.32-0.66 2.64-1 4h-12c0.33-0.99 0.66-1.98 1-3 4.04-0.634 7.91-1.12 12-1z" fill="#BA9555"/>
<path transform="translate(51,2)" d="m0 0c5.06-0.207 9.24 0.191 14 2 0.33 0.99 0.66 1.98 1 3-1.75-0.115-3.5-0.242-5.25-0.375-0.975-0.0696-1.95-0.139-2.95-0.211-2.69-0.399-4.47-1.05-6.8-2.41v-2z" fill="#BF9957"/>
<path transform="translate(300,30)" d="m0 0c2.42-0.0673 4.58-0.108 6.94 0.5 2.71 0.658 5.28 0.563 8.06 0.5v2c-0.928 0.144-1.86 0.289-2.81 0.438-3.19 0.484-3.19 0.484-6.19 1.56v-2c-1.65 0.33-3.3 0.66-5 1-0.33-1.32-0.66-2.64-1-4z" fill="#BE9757"/>
<path transform="translate(157,108)" d="m0 0h19c-6.49 3.25-12.1 3.3-19 2v-2z" fill="#BB9454"/>
<path transform="translate(370,384)" d="m0 0c3 1 3 1 4 3 0.0695 1.54 0.0845 3.08 0.0625 4.62-0.00902 0.817-0.018 1.63-0.0273 2.48-0.0116 0.626-0.0232 1.25-0.0352 1.9-2.56-2.06-2.56-2.06-5-5 0.188-3.81 0.188-3.81 1-7z" fill="#BB9454"/>
<path transform="translate(1303,370)" d="m0 0h10c0.33 0.66 0.66 1.32 1 2-0.626 0.098-1.25 0.196-1.9 0.297-0.817 0.15-1.63 0.299-2.48 0.453-0.812 0.139-1.62 0.278-2.46 0.422-2.34 0.646-2.34 0.646-3.45 2.91-0.235 0.634-0.469 1.27-0.711 1.92v-8z" fill="#9E9F9F"/>
<path transform="translate(739,370)" d="m0 0h10c0.33 0.66 0.66 1.32 1 2-0.626 0.11-1.25 0.219-1.9 0.332-0.817 0.159-1.63 0.317-2.48 0.48-1.22 0.226-1.22 0.226-2.46 0.457-2.52 0.606-2.52 0.606-4.16 3.73v-7z" fill="#9D9E9E"/>
<path transform="translate(391,124)" d="m0 0c6.15-0.0977 6.15-0.0977 8 0 1 1 1 1 1.1 2.85l-0.0977 6.15c-0.227-0.619-0.454-1.24-0.688-1.88-1.7-2.76-3.34-3.01-6.31-4.12-0.66-0.99-1.32-1.98-2-3z" fill="#C09A58"/>
<path transform="translate(210,96)" d="m0 0c4.29 0.66 8.58 1.32 13 2-1.32 1.32-2.64 2.64-4 4h-4v-2c-0.99-0.33-1.98-0.66-3-1-0.66-0.99-1.32-1.98-2-3z" fill="#886D3E"/>
<path transform="translate(1495,278)" d="m0 0h8c-0.33 1.32-0.66 2.64-1 4h-9c0.66-1.32 1.32-2.64 2-4z" fill="#909192"/>
<path transform="translate(1146,409)" d="m0 0h14c-3 3-3 3-4.94 3.4-0.681-0.00773-1.36-0.0155-2.06-0.0234-1.02 0.0116-1.02 0.0116-2.06 0.0234-1.94-0.398-1.94-0.398-4.94-3.4z" fill="#FBFDFD"/>
<path transform="translate(1319,50)" d="m0 0c2.31 0.33 4.62 0.66 7 1 0.33 1.65 0.66 3.3 1 5-0.99 0.33-1.98 0.66-3 1-0.66-0.99-1.32-1.98-2-3-0.99-0.33-1.98-0.66-3-1v-3z" fill="#D6D8D9"/>
<path transform="translate(1104,370)" d="m0 0h9c0.33 0.66 0.66 1.32 1 2-5.75 2-5.75 2-8 2-0.66 0.66-1.32 1.32-2 2v-6z" fill="#9A9B9B"/>
<path transform="translate(882,370)" d="m0 0h10c0.33 0.66 0.66 1.32 1 2-1.46 0.336-2.92 0.669-4.38 1-1.22 0.278-1.22 0.278-2.46 0.562-2.16 0.438-2.16 0.438-4.16 0.438v-4z" fill="#929393"/>
<path transform="translate(845,301)" d="m0 0c-1.98 0.66-3.96 1.32-6 2-0.33 1.65-0.66 3.3-1 5l2 1-3 3c-1.19-2.19-1.19-2.19-2-5 1.32-3.35 2.38-4.67 5.56-6.38 2.44-0.625 2.44-0.625 4.44 0.375z" fill="#929293"/>
<path transform="translate(1285,51)" d="m0 0c0.66 0.33 1.32 0.66 2 1-2.06 3.09-2.83 3.51-6 5-0.66 0.66-1.32 1.32-2 2v-5c-1.32-0.66-2.64-1.32-4-2 0.638 0.0116 1.28 0.0232 1.93 0.0352 0.826 0.00902 1.65 0.018 2.5 0.0273 1.24 0.0174 1.24 0.0174 2.5 0.0352 2.06 0.135 2.06 0.135 3.07-1.1z" fill="#E3E4E5"/>
<path transform="translate(1332,395)" d="m0 0v13h-2c-1.26-2.52-1.1-4.31-1.06-7.12 0.00902-0.91 0.018-1.82 0.0273-2.76 0.0116-0.699 0.0232-1.4 0.0352-2.12 2-1 2-1 3-1zm-2 7 1 4z" fill="#ECEDEF"/>
<path transform="translate(779,370)" d="m0 0h10c-0.33 0.99-0.66 1.98-1 3-4.46 0.495-4.46 0.495-9 1v-4z" fill="#939494"/>
<path transform="translate(1321,77)" d="m0 0c0.144 0.598 0.289 1.2 0.438 1.81 0.45 1.75 0.991 3.47 1.56 5.19-0.938 2.69-0.938 2.69-2 5-1.56-1.69-1.56-1.69-3-4 0.257-3.51 1.02-5.03 3-8z" fill="#EBECEE"/>
<path transform="translate(324,38)" d="m0 0c4.52-0.0765 8.59-0.102 13 1v2c-1.79 0.0809-3.58 0.139-5.38 0.188-1.5 0.0522-1.5 0.0522-3.02 0.105-0.859-0.0967-1.72-0.193-2.6-0.293-0.66-0.99-1.32-1.98-2-3z" fill="#BB9454"/>
<path transform="translate(82,34)" d="m0 0h10v6c-0.99-0.33-1.98-0.66-3-1v-3c-2.31-0.33-4.62-0.66-7-1v-1z" fill="#BE9757"/>
<path transform="translate(185,154)" d="m0 0c5.94 0.99 5.94 0.99 12 2-3.64 2.43-5.71 2.16-10 2v-2h-2v-2z" fill="#917341"/>
<path transform="translate(381,141)" d="m0 0h4v6h-5c-0.33-1.32-0.66-2.64-1-4 0.33 0.66 0.66 1.32 1 2h2c-0.33-1.32-0.66-2.64-1-4z" fill="#BB9454"/>
<path transform="translate(665,122)" d="m0 0c0.66 0.33 1.32 0.66 2 1-0.33 2.64-0.66 5.28-1 8h-2c-0.625-3.38-0.625-3.38-1-7 0.66-0.66 1.32-1.32 2-2z" fill="#E8E9E9"/>
<path transform="translate(126,120)" d="m0 0v10c-0.99-0.33-1.98-0.66-3-1v-8c2-1 2-1 3-1z" fill="#BB9454"/>
<path transform="translate(1209,230)" d="m0 0h1v10h-1v-10z" fill="#F2F2F3"/>
<path transform="translate(971,186)" d="m0 0h2c-0.33 1.32-0.66 2.64-1 4-0.33-1.32-0.66-2.64-1-4z" fill="#000201"/>
<path transform="translate(1178,423)" d="m0 0 2 1c-0.33 0.66-0.66 1.32-1 2-0.33-0.99-0.66-1.98-1-3z" fill="#000001"/>
<path transform="translate(907,399)" d="m0 0 1 4z" fill="#FEFEFE"/>
<path transform="translate(1382,377)" d="m0 0 1 4z" fill="#000201"/>
<path transform="translate(229,67)" d="m0 0 4 1z" fill="#000302"/>
<path transform="translate(275,154)" d="m0 0h2c-0.33 0.66-0.66 1.32-1 2-0.33-0.66-0.66-1.32-1-2z" fill="#000100"/>
<path transform="translate(459,120)" d="m0 0c3 1 3 1 3 1z" fill="#000102"/>
<path transform="translate(1495,186)" d="m0 0 2 1z" fill="#000302"/>
<path transform="translate(1396,186)" d="m0 0 2 1z" fill="#000102"/>
<path transform="translate(1068,186)" d="m0 0 2 1z" fill="#000102"/>
<path transform="translate(773,186)" d="m0 0 2 1z" fill="#000102"/>
<path transform="translate(214,160)" d="m0 0 2 1z" fill="#000102"/>
<path transform="translate(1342,131)" d="m0 0 2 1z" fill="#000302"/>
<path transform="translate(399,123)" d="m0 0 2 1z"/>
<path transform="translate(413,32)" d="m0 0 2 1z" fill="#000302"/>
<path transform="translate(48,32)" d="m0 0 2 1z" fill="#000302"/>
<path transform="translate(130,16)" d="m0 0 2 1z" fill="#BE9757"/>
</svg>
